<svg width="203" height="149" viewBox="0 0 203 149" fill="none" xmlns="http://www.w3.org/2000/svg">
<path d="M202.717 130.795H0.0654907V130.895H202.717V130.795Z" fill="#EBEBEB"/>
<path d="M182.412 137.205H168.988V137.305H182.412V137.205Z" fill="#EBEBEB"/>
<path d="M110.803 135.958H105.578V136.058H110.803V135.958Z" fill="#EBEBEB"/>
<path d="M141.788 136.38H130.788V136.48H141.788V136.38Z" fill="#EBEBEB"/>
<path d="M168.583 133.508H145.841V133.608H168.583V133.508Z" fill="#EBEBEB"/>
<path d="M32.0805 138.117H21.3278V138.217H32.0805V138.117Z" fill="#EBEBEB"/>
<path d="M45.0097 138.117H35.6877V138.217H45.0097V138.117Z" fill="#EBEBEB"/>
<path d="M77.8068 135.91H53.1603V136.01H77.8068V135.91Z" fill="#EBEBEB"/>
<path d="M96.1225 113.028H17.8624C17.2493 113.027 16.6617 112.787 16.2286 112.36C15.7955 111.934 15.5522 111.356 15.5522 110.753V2.62582C15.5575 2.0267 15.8031 1.45383 16.2357 1.03167C16.6683 0.609497 17.2528 0.37212 17.8624 0.371094H96.1225C96.7363 0.371094 97.325 0.610744 97.759 1.03732C98.193 1.4639 98.4368 2.04247 98.4368 2.64574V110.753C98.4368 111.357 98.193 111.935 97.759 112.362C97.325 112.788 96.7363 113.028 96.1225 113.028ZM17.8624 0.450767C17.2762 0.451822 16.7144 0.681444 16.3002 1.08923C15.8861 1.49702 15.6535 2.04965 15.6535 2.62582V110.753C15.6535 111.329 15.8861 111.882 16.3002 112.29C16.7144 112.698 17.2762 112.927 17.8624 112.928H96.1225C96.7091 112.927 97.2714 112.698 97.6861 112.29C98.1009 111.882 98.3344 111.33 98.3355 110.753V2.62582C98.3344 2.04929 98.1009 1.49666 97.6861 1.08899C97.2714 0.681315 96.7091 0.45182 96.1225 0.450767H17.8624Z" fill="#EBEBEB"/>
<path d="M183.794 113.028H105.53C104.916 113.027 104.328 112.787 103.894 112.361C103.461 111.934 103.216 111.356 103.215 110.753V2.62582C103.222 2.02633 103.468 1.45347 103.901 1.03142C104.335 0.609358 104.92 0.372109 105.53 0.371094H183.794C184.403 0.373167 184.986 0.611007 185.418 1.03306C185.85 1.45512 186.095 2.02739 186.1 2.62582V110.753C186.1 111.355 185.857 111.933 185.425 112.359C184.993 112.785 184.406 113.026 183.794 113.028ZM105.53 0.450767C104.943 0.45182 104.381 0.681315 103.966 1.08899C103.551 1.49666 103.318 2.04929 103.317 2.62582V110.753C103.318 111.33 103.551 111.882 103.966 112.29C104.381 112.698 104.943 112.927 105.53 112.928H183.794C184.38 112.927 184.943 112.698 185.357 112.29C185.772 111.882 186.006 111.33 186.007 110.753V2.62582C186.006 2.04929 185.772 1.49666 185.357 1.08899C184.943 0.681315 184.38 0.45182 183.794 0.450767H105.53Z" fill="#EBEBEB"/>
<path d="M30.5484 59.3207L86.3911 59.3207V8.661L30.5484 8.661L30.5484 59.3207Z" fill="#E6E6E6"/>
<path d="M28.8421 59.3207L85.5927 59.3207V8.661L28.8421 8.661L28.8421 59.3207Z" fill="#F0F0F0"/>
<path d="M30.5484 61.5555L86.3911 61.5555V59.3208L30.5484 59.3208V61.5555Z" fill="#E6E6E6"/>
<path d="M26.0049 61.5555L82.7556 61.5555V59.3208L26.0049 59.3208V61.5555Z" fill="#F0F0F0"/>
<path d="M83.2095 56.9783V11.0073L31.2293 11.0073V56.9783H83.2095Z" fill="#FAFAFA"/>
<path d="M71.4881 56.9783L64.8492 11.0073H54.4897L61.1286 56.9783H71.4881Z" fill="white"/>
<path d="M82.107 54.644C82.1522 54.644 82.1955 54.6263 82.2274 54.595C82.2593 54.5636 82.2773 54.521 82.2773 54.4767V12.5331C82.2811 12.5087 82.2795 12.4838 82.2726 12.46C82.2657 12.4363 82.2536 12.4143 82.2373 12.3955C82.2209 12.3768 82.2006 12.3617 82.1778 12.3514C82.155 12.3411 82.1301 12.3358 82.105 12.3358C82.0799 12.3358 82.055 12.3411 82.0322 12.3514C82.0094 12.3617 81.9891 12.3768 81.9727 12.3955C81.9564 12.4143 81.9443 12.4363 81.9374 12.46C81.9305 12.4838 81.9289 12.5087 81.9328 12.5331V54.4767C81.9327 54.499 81.9373 54.521 81.9461 54.5416C81.9549 54.5622 81.9678 54.5808 81.984 54.5964C82.0003 54.612 82.0195 54.6242 82.0406 54.6324C82.0618 54.6406 82.0843 54.6445 82.107 54.644Z" fill="#F0F0F0"/>
<path d="M58.9035 56.9783L52.2646 11.0073H48.2237L54.8626 56.9783H58.9035Z" fill="white"/>
<path d="M31.5333 56.9744L31.5333 11.0034H31.2294L31.2294 56.9744H31.5333Z" fill="#E6E6E6"/>
<path opacity="0.6" d="M28.2787 14.5408H84.1214L84.3444 11.9155H28.5016L28.2787 14.5408Z" fill="#EBEBEB"/>
<path opacity="0.6" d="M28.2787 16.0188H84.1214L84.3444 13.3975H28.5016L28.2787 16.0188Z" fill="#EBEBEB"/>
<path opacity="0.6" d="M28.2787 17.5006H84.1214L84.3444 14.8754H28.5016L28.2787 17.5006Z" fill="#EBEBEB"/>
<path opacity="0.6" d="M28.2787 18.9825H84.1214L84.3444 16.3574H28.5016L28.2787 18.9825Z" fill="#EBEBEB"/>
<path opacity="0.6" d="M28.2787 20.4605H84.1214L84.3444 17.8353H28.5016L28.2787 20.4605Z" fill="#EBEBEB"/>
<path opacity="0.6" d="M28.2787 21.9424H84.1214L84.3444 19.3171H28.5016L28.2787 21.9424Z" fill="#EBEBEB"/>
<path d="M163.119 128.986H174.889V64.7543H163.119V128.986Z" fill="#F0F0F0"/>
<path d="M114.588 130.791H172.628V128.983H114.588V130.791Z" fill="#F0F0F0"/>
<path d="M163.119 64.7504H112.331V128.982H163.119V64.7504Z" fill="#F5F5F5"/>
<path d="M158.491 89.4647H116.955V104.272H158.491V89.4647Z" fill="#F0F0F0"/>
<path d="M158.491 107.574H116.955V122.382H158.491V107.574Z" fill="#F0F0F0"/>
<path d="M133.005 91.4487H142.445C143.047 91.4487 143.535 90.969 143.535 90.3771V90.0385C143.535 89.4467 143.047 88.9669 142.445 88.9669H133.005C132.403 88.9669 131.915 89.4467 131.915 90.0385V90.3771C131.915 90.969 132.403 91.4487 133.005 91.4487Z" fill="#F5F5F5"/>
<path d="M158.491 71.3553H116.955V86.1624H158.491V71.3553Z" fill="#F0F0F0"/>
<path d="M133.005 73.3431H142.445C143.047 73.3431 143.535 72.8634 143.535 72.2716V71.933C143.535 71.3411 143.047 70.8614 142.445 70.8614H133.005C132.403 70.8614 131.915 71.3411 131.915 71.933V72.2716C131.915 72.8634 132.403 73.3431 133.005 73.3431Z" fill="#F5F5F5"/>
<path d="M133.005 109.558H142.445C143.047 109.558 143.535 109.078 143.535 108.487V108.148C143.535 107.556 143.047 107.076 142.445 107.076H133.005C132.403 107.076 131.915 107.556 131.915 108.148V108.487C131.915 109.078 132.403 109.558 133.005 109.558Z" fill="#F5F5F5"/>
<path d="M110.762 64.7504H163.119V62.3363L110.762 62.3363V64.7504Z" fill="#F0F0F0"/>
<path d="M176.535 62.3404H163.119V64.7544H176.535V62.3404Z" fill="#E6E6E6"/>
<path d="M50.8298 128.755H56.1028L56.1028 69.7778H50.8298L50.8298 128.755Z" fill="#F0F0F0"/>
<path d="M25.5065 130.787H54.7086V128.751H25.5065V130.787Z" fill="#F0F0F0"/>
<path d="M50.8338 69.7737H24.1202V128.751H50.8338V69.7737Z" fill="#F5F5F5"/>
<path d="M47.9805 100.487H26.9655V111.02H47.9805V100.487Z" fill="#F0F0F0"/>
<path d="M47.9805 114.271H26.9655V124.803H47.9805V114.271Z" fill="#F0F0F0"/>
<path d="M34.5082 106.475H40.4459C40.7816 106.475 41.0538 106.207 41.0538 105.878V105.627C41.0538 105.297 40.7816 105.029 40.4459 105.029H34.5082C34.1724 105.029 33.9002 105.297 33.9002 105.627V105.878C33.9002 106.207 34.1724 106.475 34.5082 106.475Z" fill="#F5F5F5"/>
<path d="M34.5082 120.258H40.4459C40.7816 120.258 41.0538 119.991 41.0538 119.661V119.41C41.0538 119.08 40.7816 118.813 40.4459 118.813H34.5082C34.1724 118.813 33.9002 119.08 33.9002 119.41V119.661C33.9002 119.991 34.1724 120.258 34.5082 120.258Z" fill="#F5F5F5"/>
<path d="M47.9805 73.0284H26.9655V83.5611H47.9805V73.0284Z" fill="#F0F0F0"/>
<path d="M47.9805 86.7041H26.9655V97.2368H47.9805V86.7041Z" fill="#F0F0F0"/>
<path d="M34.5082 79.0158H40.4459C40.7816 79.0158 41.0538 78.7484 41.0538 78.4185V78.1677C41.0538 77.8378 40.7816 77.5704 40.4459 77.5704H34.5082C34.1724 77.5704 33.9002 77.8378 33.9002 78.1677V78.4185C33.9002 78.7484 34.1724 79.0158 34.5082 79.0158Z" fill="#F5F5F5"/>
<path d="M34.5082 92.6916H40.4459C40.7816 92.6916 41.0538 92.4242 41.0538 92.0943V91.8435C41.0538 91.5136 40.7816 91.2462 40.4459 91.2462H34.5082C34.1724 91.2462 33.9002 91.5136 33.9002 91.8435V92.0943C33.9002 92.4242 34.1724 92.6916 34.5082 92.6916Z" fill="#F5F5F5"/>
<path d="M80.0603 128.755H88.7825L88.7825 69.7778H80.0603V128.755Z" fill="#F0F0F0"/>
<path d="M54.741 130.787H87.1653V128.751H54.741V130.787Z" fill="#F0F0F0"/>
<path d="M80.0644 69.7737H53.3508V128.751H80.0644V69.7737Z" fill="#F5F5F5"/>
<path d="M77.2151 100.487H56.2001V111.02H77.2151V100.487Z" fill="#F0F0F0"/>
<path d="M77.2151 114.271H56.2001V124.803H77.2151V114.271Z" fill="#F0F0F0"/>
<path d="M63.7347 106.475H69.6724C70.0081 106.475 70.2803 106.207 70.2803 105.878V105.627C70.2803 105.297 70.0081 105.029 69.6724 105.029H63.7347C63.3989 105.029 63.1267 105.297 63.1267 105.627V105.878C63.1267 106.207 63.3989 106.475 63.7347 106.475Z" fill="#F5F5F5"/>
<path d="M63.7347 120.258H69.6724C70.0081 120.258 70.2803 119.991 70.2803 119.661V119.41C70.2803 119.08 70.0081 118.813 69.6724 118.813H63.7347C63.3989 118.813 63.1267 119.08 63.1267 119.41V119.661C63.1267 119.991 63.3989 120.258 63.7347 120.258Z" fill="#F5F5F5"/>
<path d="M77.2151 73.0284H56.2001V83.5611H77.2151V73.0284Z" fill="#F0F0F0"/>
<path d="M77.2151 86.7041H56.2001V97.2368H77.2151V86.7041Z" fill="#F0F0F0"/>
<path d="M63.7347 79.0158H69.6724C70.0081 79.0158 70.2803 78.7484 70.2803 78.4185V78.1677C70.2803 77.8378 70.0081 77.5704 69.6724 77.5704H63.7347C63.3989 77.5704 63.1267 77.8378 63.1267 78.1677V78.4185C63.1267 78.7484 63.3989 79.0158 63.7347 79.0158Z" fill="#F5F5F5"/>
<path d="M63.7347 92.6916H69.6724C70.0081 92.6916 70.2803 92.4242 70.2803 92.0943V91.8435C70.2803 91.5136 70.0081 91.2462 69.6724 91.2462H63.7347C63.3989 91.2462 63.1267 91.5136 63.1267 91.8435V92.0943C63.1267 92.4242 63.3989 92.6916 63.7347 92.6916Z" fill="#F5F5F5"/>
<path d="M155.876 40.3307H164.785L163.735 19.2654H155.876V40.3307Z" fill="#F5F5F5"/>
<path d="M169.815 41.4702L171.736 47.7284H169.815L158.037 41.4702H169.815Z" fill="#F5F5F5"/>
<path d="M171.736 41.4702V47.7284L159.958 41.4702H171.736Z" fill="#E6E6E6"/>
<path d="M123.626 41.4702L125.548 47.7284H123.626L111.848 41.4702H123.626Z" fill="#F5F5F5"/>
<path d="M125.548 41.4702V47.7284L113.769 41.4702H125.548Z" fill="#E6E6E6"/>
<path d="M175.149 40.3627H164.092V41.7125H175.149V40.3627Z" fill="#E6E6E6"/>
<path d="M109.121 41.7131L164.092 41.7131V40.3633L109.121 40.3633V41.7131Z" fill="#F5F5F5"/>
<path d="M142.793 40.3307H161.911L164.278 14.8037H145.156L142.793 40.3307Z" fill="#E0E0E0"/>
<path d="M141.804 40.3307H160.922L163.285 14.8037H144.167L141.804 40.3307Z" fill="#E6E6E6"/>
<path d="M159.317 37.5063L161.478 17.6281H145.772L143.612 37.5063H159.317Z" fill="#F5F5F5"/>
<path d="M134.237 40.3308H140.37L139.644 25.8264H134.237V40.3308Z" fill="#E0E0E0"/>
<path d="M125.227 40.3308H138.392L140.017 22.7551H126.853L125.227 40.3308Z" fill="#F0F0F0"/>
<path d="M124.542 40.3308H137.711L139.336 22.7551H126.172L124.542 40.3308Z" fill="#F5F5F5"/>
<path d="M136.604 38.3868L138.092 24.699H127.278L125.791 38.3868H136.604Z" fill="#EBEBEB"/>
<path d="M101.391 148.785C144.792 148.785 179.976 146.766 179.976 144.275C179.976 141.785 144.792 139.766 101.391 139.766C57.9905 139.766 22.8071 141.785 22.8071 144.275C22.8071 146.766 57.9905 148.785 101.391 148.785Z" fill="#F5F5F5"/>
<path d="M130.209 138.878L127.136 138.049L128.279 130.831L131.352 131.663L130.209 138.878Z" fill="#FFC3BD"/>
<path d="M152.885 140.885H149.696L148.901 133.631H152.091L152.885 140.885Z" fill="#FFC3BD"/>
<path d="M149.436 140.523H153.319C153.382 140.523 153.444 140.545 153.493 140.584C153.542 140.623 153.577 140.677 153.591 140.738L154.223 143.527C154.238 143.595 154.236 143.665 154.219 143.733C154.202 143.8 154.17 143.863 154.125 143.917C154.08 143.971 154.023 144.014 153.958 144.043C153.894 144.072 153.824 144.086 153.753 144.084C152.504 144.064 151.592 143.989 150.016 143.989C149.047 143.989 146.129 144.088 144.791 144.088C143.454 144.088 143.276 142.79 143.823 142.67C146.279 142.144 148.131 141.415 148.917 140.722C149.059 140.594 149.244 140.523 149.436 140.523Z" fill="#263238"/>
<path d="M127.254 137.703L130.61 138.611C130.671 138.628 130.724 138.665 130.761 138.715C130.798 138.766 130.816 138.827 130.812 138.89L130.667 141.738C130.664 141.807 130.645 141.874 130.612 141.935C130.579 141.996 130.532 142.049 130.475 142.089C130.418 142.129 130.352 142.156 130.283 142.168C130.213 142.18 130.142 142.176 130.075 142.156C128.859 141.806 127.14 141.264 125.616 140.854C123.837 140.372 122.273 140.057 120.189 139.483C118.929 139.141 118.929 137.794 119.488 137.822C122.038 137.957 124.016 138.435 126.443 137.738C126.705 137.652 126.986 137.64 127.254 137.703Z" fill="#263238"/>
<path opacity="0.2" d="M128.279 130.835L127.688 134.551L130.764 135.384L131.352 131.667L128.279 130.835Z" fill="black"/>
<path opacity="0.2" d="M152.091 133.635H148.901L149.315 137.376H152.5L152.091 133.635Z" fill="black"/>
<path d="M114.791 41.6254L114.515 38.6217L111.524 40.0518C111.524 40.0518 112.31 42.7169 113.794 42.442L114.791 41.6254Z" fill="#FFC3BD"/>
<path d="M113.842 37.2076L110.47 37.8928L111.532 40.0519L114.515 38.6218L113.842 37.2076Z" fill="#FFC3BD"/>
<path d="M134.42 42.0796C132.827 42.6998 131.292 43.4542 129.832 44.3343C129.52 44.4857 129.207 44.6371 128.891 44.7805C128.121 45.1231 127.339 45.4378 126.553 45.7087C125.083 46.2575 123.532 46.5683 121.961 46.6289C121.79 46.6289 121.616 46.6289 121.454 46.609H121.336H121.284C121.241 46.6037 121.199 46.5958 121.158 46.5851C120.89 46.5343 120.629 46.4486 120.384 46.3301C119.701 45.9816 119.067 45.5463 118.499 45.0354C117.213 43.8918 116.043 42.6284 115.006 41.2629L112.926 42.4301C113.739 44.1781 114.738 45.8365 115.905 47.3778C116.548 48.2277 117.297 48.9946 118.135 49.6604C118.639 50.062 119.204 50.3845 119.808 50.6165C119.984 50.6791 120.162 50.7323 120.343 50.7758L120.631 50.8396L120.854 50.8754C121.142 50.9272 121.43 50.9591 121.713 50.987C123.817 51.1095 125.927 50.8832 127.955 50.3177C128.798 50.1026 129.617 49.8516 130.423 49.5768C131.291 49.3975 138.424 47.8439 139.644 45.3302C141.221 42.0756 138.213 40.7491 134.42 42.0796Z" fill="#263238"/>
<path opacity="0.2" d="M133.07 48.9035C134.072 48.6217 135.058 48.2839 136.021 47.8917L136.264 45.3262C136.264 45.3262 134.359 46.0911 133.07 48.9035Z" fill="black"/>
<path d="M153.27 42.5337C153.363 42.5574 153.451 42.5988 153.527 42.6557C153.604 42.7126 153.668 42.7838 153.717 42.8652C153.766 42.9467 153.797 43.0367 153.81 43.1302C153.823 43.2237 153.818 43.3189 153.793 43.4101C152.96 46.5696 152.346 49.7812 151.957 53.0226C151.657 55.4487 151.475 57.7632 151.365 59.8665C151.098 64.7903 151.207 68.5428 151.061 69.8256C148.569 69.6583 139.178 69.0288 134.039 68.6623C131.724 50.8436 136.146 41.6653 136.146 41.6653C137.486 41.4179 138.839 41.2516 140.199 41.1674C140.487 41.1674 140.779 41.1395 141.079 41.1355C143.497 41.1633 145.911 41.3283 148.309 41.6295C148.763 41.6813 149.221 41.749 149.671 41.8207C151.138 42.0398 152.46 42.3425 153.27 42.5337Z" fill="#263238"/>
<path opacity="0.2" d="M150.972 45.7844C150.636 47.8934 151.03 50.0523 152.091 51.9151C152.294 50.4372 152.545 48.9274 152.853 47.4017L150.972 45.7844Z" fill="black"/>
<path d="M148.18 33.5665C147.56 35.8253 146.964 39.8527 148.147 41.6573C146.871 42.7807 145.351 42.4979 144.05 42.2987C142.465 42.0557 142.254 41.7011 142.757 40.9721C143.069 40.6375 143.126 40.2949 143.421 39.5141C143.661 38.691 143.68 37.8212 143.478 36.9885L148.18 33.5665Z" fill="#FFC3BD"/>
<path d="M142.651 40.0081C142.858 41.0319 141.569 41.5777 141.946 42.0239C142.323 42.47 145.683 43.5934 147.162 43.0636C148.642 42.5338 148.484 42.4023 148.378 41.1196C148.273 39.8368 149.108 39.0003 148.03 39.3429C147.479 39.5181 144.617 39.056 143.794 39.056C142.972 39.056 142.485 39.1875 142.651 40.0081Z" fill="#263238"/>
<path opacity="0.2" d="M146.263 34.9648L143.478 36.9845C143.562 37.4059 143.607 37.8339 143.612 38.2633C144.613 38.1916 146.044 37.2156 146.23 36.2037C146.316 35.796 146.327 35.3764 146.263 34.9648Z" fill="black"/>
<path d="M142.023 26.0415C141.314 26.3642 140.167 27.87 141.111 28.8659C142.056 29.8618 143.024 25.5913 142.023 26.0415Z" fill="#263238"/>
<path d="M149.112 30.2792C148.589 33.3466 148.439 35.1671 146.68 36.5893C144.042 38.7245 140.317 36.908 139.895 33.749C139.518 30.9086 140.438 26.3713 143.644 25.463C144.35 25.2578 145.097 25.2335 145.815 25.3924C146.533 25.5513 147.198 25.8882 147.746 26.371C148.294 26.8537 148.707 27.4663 148.946 28.1504C149.185 28.8345 149.242 29.5673 149.112 30.2792Z" fill="#FFC3BD"/>
<path d="M148.18 32.479C147.012 31.75 146.964 30.9055 147.316 30.1486C148.439 27.5911 148.127 26.2964 146.133 26.5315C144.139 26.7665 141.298 26.9936 141.65 26.0973C142.003 25.2009 144.508 24.8225 146.636 25.0695C148.763 25.3165 151.045 26.9418 150.591 29.4993C150.154 31.9452 149.623 32.6384 148.18 32.479Z" fill="#263238"/>
<path d="M150.231 33.1762C149.832 33.8534 149.178 34.3487 148.411 34.5545C147.389 34.8174 146.899 33.9171 147.195 32.9611C147.462 32.1205 148.318 30.9693 149.335 31.1167C150.352 31.2641 150.709 32.3396 150.231 33.1762Z" fill="#FFC3BD"/>
<path d="M126.735 133.544L131.935 134.95C131.935 134.95 136.033 114.765 136.288 105.009C136.365 102.041 137.67 98.5315 138.667 94.1257C139.932 88.5765 141.504 82.5732 142.809 77.8725C144.179 72.9208 145.221 69.4192 145.221 69.4192L134.043 68.6504C134.043 68.6504 128.271 94.7073 127.578 104.244C126.853 114.159 126.735 133.544 126.735 133.544Z" fill="#407BFF"/>
<path opacity="0.4" d="M126.735 133.544L131.935 134.95C131.935 134.95 136.033 114.765 136.288 105.009C136.365 102.041 137.67 98.5315 138.667 94.1257C139.932 88.5765 141.504 82.5732 142.809 77.8725C144.179 72.9208 145.221 69.4192 145.221 69.4192L134.043 68.6504C134.043 68.6504 128.271 94.7073 127.578 104.244C126.853 114.159 126.735 133.544 126.735 133.544Z" fill="black"/>
<path opacity="0.2" d="M138.679 94.1256C139.944 88.5764 141.517 82.5731 142.822 77.8724L141.662 75.4146C138.878 78.6532 138.132 88.68 138.679 94.1256Z" fill="black"/>
<path d="M140.074 69.0647C140.074 69.0647 140.884 93.9862 142.214 103.069C143.689 113.028 147.839 136.651 147.839 136.651H153.676C153.676 136.651 153.364 114.143 151.536 104.507C149.452 93.5361 151.045 69.8176 151.045 69.8176L140.074 69.0647Z" fill="#407BFF"/>
<path opacity="0.4" d="M140.074 69.0647C140.074 69.0647 140.884 93.9862 142.214 103.069C143.689 113.028 147.839 136.651 147.839 136.651H153.676C153.676 136.651 153.364 114.143 151.536 104.507C149.452 93.5361 151.045 69.8176 151.045 69.8176L140.074 69.0647Z" fill="black"/>
<path d="M147.142 136.774H154.016V134.755L146.332 134.623L147.142 136.774Z" fill="#263238"/>
<path d="M126.046 133.484L132.247 135.165L132.798 133.197L125.896 131.217L126.046 133.484Z" fill="#263238"/>
<path d="M144.666 30.4514C144.641 30.7024 144.483 30.8936 144.317 30.8777C144.151 30.8617 144.033 30.6426 144.062 30.3917C144.09 30.1407 144.244 29.9495 144.414 29.9654C144.585 29.9813 144.694 30.2004 144.666 30.4514Z" fill="#263238"/>
<path d="M141.46 30.3517C141.435 30.6027 141.277 30.7939 141.107 30.774C140.937 30.7541 140.828 30.539 140.856 30.288C140.884 30.037 141.038 29.8498 141.209 29.8657C141.379 29.8816 141.488 30.1007 141.46 30.3517Z" fill="#263238"/>
<path d="M144.439 32.2401C144.033 32.2697 143.627 32.1785 143.275 31.9784C142.923 31.7783 142.64 31.4785 142.463 31.1182C142.287 30.7578 142.224 30.3535 142.285 29.958C142.345 29.5624 142.525 29.1939 142.802 28.9004C143.078 28.6069 143.438 28.402 143.835 28.3125C144.232 28.2229 144.647 28.2528 145.026 28.3982C145.405 28.5437 145.731 28.7979 145.961 29.1279C146.191 29.4579 146.314 29.8483 146.315 30.2483C146.333 30.7564 146.146 31.2507 145.794 31.6238C145.443 31.9968 144.956 32.2183 144.439 32.2401ZM144.439 28.4357C144.069 28.402 143.698 28.4789 143.374 28.6563C143.049 28.8338 142.787 29.1035 142.622 29.4301C142.456 29.7567 142.395 30.1248 142.446 30.4862C142.497 30.8475 142.659 31.1852 142.909 31.4548C143.159 31.7245 143.486 31.9135 143.847 31.997C144.209 32.0806 144.587 32.0547 144.933 31.9229C145.279 31.7911 145.577 31.5595 145.787 31.2585C145.996 30.9575 146.109 30.6011 146.109 30.2363C146.126 29.7821 145.961 29.3393 145.648 29.0044C145.335 28.6695 144.901 28.4694 144.439 28.4477V28.4357Z" fill="white"/>
<path d="M140.301 32.2401C139.895 32.2697 139.489 32.1785 139.137 31.9784C138.784 31.7783 138.502 31.4785 138.325 31.1182C138.148 30.7578 138.086 30.3535 138.147 29.958C138.207 29.5624 138.387 29.1939 138.664 28.9004C138.94 28.6069 139.3 28.402 139.697 28.3125C140.094 28.2229 140.508 28.2528 140.887 28.3982C141.267 28.5437 141.592 28.7979 141.822 29.1279C142.052 29.4579 142.176 29.8483 142.177 30.2483C142.195 30.7564 142.007 31.2507 141.656 31.6238C141.305 31.9968 140.817 32.2183 140.301 32.2401ZM140.301 28.4357C139.931 28.4004 139.56 28.4756 139.235 28.6514C138.91 28.8273 138.647 29.0956 138.479 29.4212C138.312 29.7468 138.249 30.1144 138.299 30.4758C138.348 30.8372 138.507 31.1755 138.755 31.4464C139.004 31.7173 139.33 31.9081 139.69 31.9937C140.051 32.0794 140.429 32.0559 140.776 31.9263C141.123 31.7967 141.422 31.5672 141.633 31.2677C141.845 30.9682 141.96 30.6129 141.962 30.2483C141.983 29.7933 141.82 29.3487 141.509 29.0113C141.198 28.674 140.763 28.4714 140.301 28.4477V28.4357Z" fill="white"/>
<path d="M142.214 30.5151C141.895 31.2812 141.47 32.001 140.953 32.6543C141.125 32.7798 141.323 32.867 141.533 32.9096C141.743 32.9523 141.96 32.9494 142.169 32.9013L142.214 30.5151Z" fill="#ED847E"/>
<path d="M145.428 29.6825C145.401 29.6882 145.373 29.6864 145.347 29.6772C145.321 29.6681 145.299 29.652 145.282 29.6307C145.168 29.4812 145.02 29.3601 144.849 29.2771C144.679 29.194 144.491 29.1514 144.301 29.1527C144.281 29.1543 144.261 29.152 144.243 29.146C144.224 29.1401 144.206 29.1305 144.191 29.118C144.176 29.1054 144.164 29.09 144.155 29.0727C144.146 29.0555 144.14 29.0366 144.139 29.0173C144.137 28.9979 144.14 28.9784 144.146 28.9599C144.152 28.9415 144.161 28.9243 144.174 28.9095C144.187 28.8947 144.203 28.8826 144.22 28.8737C144.238 28.8648 144.257 28.8595 144.277 28.8579C144.516 28.8511 144.753 28.9008 144.969 29.0026C145.185 29.1045 145.373 29.2557 145.517 29.4435C145.542 29.4748 145.553 29.5144 145.549 29.5539C145.544 29.5934 145.524 29.6296 145.493 29.6546C145.473 29.6679 145.451 29.6774 145.428 29.6825Z" fill="#263238"/>
<path d="M143.097 34.2313C143.469 34.2365 143.836 34.1543 144.169 33.9915C144.502 33.8288 144.79 33.5901 145.01 33.2956C145.022 33.2776 145.026 33.2558 145.022 33.2349C145.017 33.214 145.004 33.1957 144.986 33.1841C144.977 33.1783 144.967 33.1744 144.956 33.1725C144.946 33.1706 144.935 33.1707 144.924 33.1729C144.903 33.1774 144.884 33.19 144.872 33.208C144.666 33.4783 144.398 33.6973 144.089 33.8473C143.781 33.9974 143.441 34.0744 143.097 34.072C143.087 34.072 143.076 34.0741 143.066 34.0781C143.056 34.0821 143.047 34.088 143.04 34.0953C143.032 34.1027 143.026 34.1115 143.022 34.1212C143.018 34.1308 143.016 34.1412 143.016 34.1517C143.016 34.1621 143.018 34.1725 143.022 34.1821C143.026 34.1918 143.032 34.2006 143.04 34.208C143.047 34.2154 143.056 34.2212 143.066 34.2252C143.076 34.2292 143.087 34.2313 143.097 34.2313Z" fill="#263238"/>
<path d="M139.693 29.6945C139.66 29.6947 139.628 29.6865 139.599 29.6706C139.566 29.6494 139.543 29.6164 139.534 29.5786C139.525 29.5408 139.531 29.501 139.551 29.4675C139.673 29.2637 139.843 29.0919 140.047 28.9664C140.251 28.8409 140.482 28.7654 140.722 28.7464C140.762 28.7464 140.801 28.7618 140.83 28.7893C140.858 28.8169 140.875 28.8543 140.876 28.8938C140.875 28.933 140.859 28.9703 140.831 28.9984C140.804 29.0265 140.766 29.0432 140.726 29.0452C140.538 29.0621 140.356 29.1234 140.196 29.2239C140.037 29.3245 139.904 29.4613 139.81 29.6228C139.797 29.6427 139.78 29.6596 139.76 29.672C139.739 29.6844 139.717 29.6921 139.693 29.6945Z" fill="#263238"/>
<path d="M148.382 141.073C148.165 141.089 147.948 141.033 147.766 140.913C147.709 140.865 147.665 140.803 147.638 140.733C147.611 140.664 147.602 140.589 147.612 140.515C147.611 140.472 147.623 140.43 147.645 140.394C147.667 140.357 147.699 140.327 147.738 140.308C148.095 140.128 149.12 140.75 149.238 140.822C149.249 140.829 149.259 140.84 149.265 140.853C149.27 140.865 149.272 140.88 149.27 140.893C149.269 140.909 149.262 140.923 149.252 140.934C149.242 140.946 149.228 140.954 149.213 140.957C148.942 141.026 148.663 141.065 148.382 141.073ZM147.908 140.423C147.874 140.42 147.841 140.427 147.811 140.443C147.787 140.443 147.766 140.471 147.762 140.531C147.755 140.58 147.761 140.63 147.779 140.677C147.796 140.724 147.825 140.765 147.864 140.798C148.22 140.957 148.624 140.977 148.994 140.854C148.664 140.643 148.295 140.497 147.908 140.423Z" fill="#407BFF"/>
<path d="M149.217 140.961H149.181C148.853 140.785 148.212 140.096 148.281 139.766C148.292 139.711 148.322 139.662 148.365 139.627C148.409 139.591 148.464 139.572 148.52 139.571C148.578 139.563 148.637 139.567 148.693 139.584C148.749 139.6 148.801 139.628 148.844 139.666C149.213 139.961 149.29 140.861 149.29 140.905C149.292 140.918 149.29 140.931 149.284 140.943C149.279 140.955 149.269 140.966 149.258 140.972C149.243 140.972 149.229 140.968 149.217 140.961ZM148.573 139.69H148.54C148.443 139.69 148.431 139.746 148.431 139.766C148.39 139.969 148.796 140.491 149.124 140.734C149.103 140.377 148.971 140.035 148.747 139.754C148.693 139.709 148.623 139.686 148.553 139.69H148.573Z" fill="#407BFF"/>
<path d="M126.84 138.037C126.318 138.001 125.406 137.881 125.15 137.495C125.109 137.438 125.084 137.371 125.078 137.301C125.071 137.231 125.084 137.161 125.114 137.097C125.126 137.058 125.147 137.023 125.177 136.995C125.207 136.967 125.244 136.947 125.284 136.938C125.714 136.842 126.78 137.786 126.905 137.893C126.917 137.902 126.925 137.914 126.929 137.928C126.934 137.942 126.934 137.957 126.929 137.97C126.925 137.984 126.916 137.996 126.905 138.005C126.893 138.014 126.879 138.02 126.865 138.021L126.84 138.037ZM125.325 137.097H125.304C125.288 137.101 125.274 137.11 125.262 137.122C125.251 137.134 125.243 137.148 125.24 137.165C125.222 137.205 125.214 137.249 125.218 137.292C125.221 137.336 125.236 137.378 125.26 137.415C125.406 137.63 125.9 137.814 126.609 137.869C126.184 137.507 125.576 137.069 125.325 137.097Z" fill="#407BFF"/>
<path d="M126.841 138.036C126.832 138.04 126.822 138.042 126.812 138.042C126.802 138.042 126.793 138.04 126.784 138.036C126.46 137.774 125.904 136.921 126.058 136.595C126.095 136.519 126.18 136.436 126.387 136.468C126.461 136.48 126.532 136.508 126.595 136.548C126.659 136.589 126.713 136.641 126.755 136.702C127.055 137.121 126.909 137.957 126.905 137.993C126.904 138.005 126.898 138.018 126.889 138.027C126.881 138.037 126.869 138.045 126.857 138.048L126.841 138.036ZM126.273 136.595C126.212 136.595 126.2 136.631 126.196 136.643C126.103 136.838 126.46 137.483 126.776 137.809C126.838 137.457 126.787 137.093 126.63 136.77C126.599 136.725 126.559 136.686 126.512 136.657C126.465 136.627 126.413 136.608 126.358 136.599C126.329 136.599 126.301 136.603 126.273 136.611V136.595Z" fill="#407BFF"/>
<path d="M152.375 67.3437L149.132 67.6624L151.065 70.6781C151.065 70.6781 153.692 69.6622 153.299 68.236L152.375 67.3437Z" fill="#FFC3BD"/>
<path d="M147 69.2479L148.994 71.9169L151.082 70.678L149.148 67.6624L147 69.2479Z" fill="#FFC3BD"/>
<path d="M159.958 53.656C159.666 52.8593 159.334 52.0626 158.981 51.3097C158.718 50.4771 156.488 43.6412 153.826 42.6771C150.393 41.4343 149.327 44.5016 151.025 48.0909C151.799 49.5929 152.705 51.0258 153.732 52.3733C153.915 52.6641 154.097 52.9549 154.267 53.2497C154.673 53.9747 155.078 54.7117 155.427 55.4566C156.119 56.8434 156.577 58.3313 156.784 59.8625C156.784 60.0338 156.809 60.2011 156.809 60.3644V60.48C156.807 60.4972 156.807 60.5145 156.809 60.5317C156.812 60.5728 156.812 60.6141 156.809 60.6552C156.784 60.928 156.721 61.1961 156.622 61.452C156.332 62.1522 155.951 62.8123 155.487 63.4159C154.447 64.7814 153.272 66.0436 151.981 67.1844L153.359 69.1125C155.056 68.1556 156.644 67.0245 158.097 65.7383C158.9 65.0309 159.609 64.228 160.209 63.3482C160.568 62.8163 160.842 62.2332 161.02 61.6193C161.069 61.4425 161.107 61.2629 161.133 61.0815L161.17 60.7947V60.5716C161.194 60.2848 161.198 60.0019 161.202 59.7231C161.137 57.6464 160.716 55.5953 159.958 53.656Z" fill="#263238"/>
<path d="M34.95 78.6772H102.267C103.135 78.6689 103.968 78.334 104.592 77.7413C105.217 77.1485 105.588 76.343 105.627 75.4903L107.135 33.2958C107.151 32.8824 107.082 32.47 106.932 32.0834C106.782 31.6968 106.554 31.344 106.262 31.0463C105.97 30.7486 105.619 30.512 105.231 30.3509C104.844 30.1898 104.427 30.1075 104.006 30.1089H36.6847C35.816 30.1162 34.9832 30.4508 34.3581 31.0438C33.733 31.6367 33.3631 32.4428 33.3247 33.2958L31.817 75.4864C31.8006 75.9003 31.8696 76.3132 32.0198 76.7003C32.17 77.0874 32.3983 77.4406 32.6909 77.7387C32.9836 78.0368 33.3347 78.2736 33.7229 78.4349C34.1111 78.5962 34.5285 78.6786 34.95 78.6772Z" fill="#407BFF"/>
<path opacity="0.4" d="M34.95 78.6772H102.267C103.135 78.6689 103.968 78.334 104.592 77.7413C105.217 77.1485 105.588 76.343 105.627 75.4903L107.135 33.2958C107.151 32.8824 107.082 32.47 106.932 32.0834C106.782 31.6968 106.554 31.344 106.262 31.0463C105.97 30.7486 105.619 30.512 105.231 30.3509C104.844 30.1898 104.427 30.1075 104.006 30.1089H36.6847C35.816 30.1162 34.9832 30.4508 34.3581 31.0438C33.733 31.6367 33.3631 32.4428 33.3247 33.2958L31.817 75.4864C31.8006 75.9003 31.8696 76.3132 32.0198 76.7003C32.17 77.0874 32.3983 77.4406 32.6909 77.7387C32.9836 78.0368 33.3347 78.2736 33.7229 78.4349C34.1111 78.5962 34.5285 78.6786 34.95 78.6772Z" fill="black"/>
<path d="M35.5903 78.6772H102.911C103.779 78.668 104.611 78.3327 105.236 77.7402C105.861 77.1477 106.231 76.3427 106.271 75.4903L107.779 33.2958C107.795 32.882 107.726 32.4692 107.576 32.0824C107.426 31.6955 107.198 31.3426 106.905 31.0448C106.612 30.747 106.261 30.5106 105.873 30.3497C105.485 30.1889 105.067 30.1069 104.646 30.1089H37.325C36.457 30.1172 35.6253 30.4523 35.001 31.0451C34.3768 31.6379 34.0075 32.4434 33.9691 33.2958L32.4614 75.4863C32.4444 75.9001 32.5129 76.313 32.6626 76.7C32.8123 77.0871 33.0403 77.4403 33.3326 77.7385C33.625 78.0366 33.9758 78.2735 34.3638 78.4349C34.7518 78.5962 35.169 78.6786 35.5903 78.6772Z" fill="#407BFF"/>
<path opacity="0.9" d="M102.267 76.0201C102.61 76.0164 102.938 75.8839 103.184 75.6498C103.431 75.4157 103.577 75.0978 103.592 74.7613L105.039 34.0167C105.048 33.8545 105.023 33.6922 104.966 33.5398C104.909 33.3873 104.821 33.2479 104.707 33.1301C104.593 33.0123 104.456 32.9185 104.304 32.8545C104.152 32.7905 103.989 32.7576 103.823 32.7579H37.9695C37.6271 32.7626 37.2994 32.8954 37.0531 33.1293C36.8069 33.3631 36.6606 33.6805 36.6441 34.0167L35.1891 74.7613C35.1803 74.9235 35.2052 75.0858 35.2624 75.2382C35.3195 75.3906 35.4077 75.53 35.5215 75.6479C35.6353 75.7657 35.7723 75.8594 35.9242 75.9234C36.0761 75.9874 36.2397 76.0203 36.405 76.0201H102.267Z" fill="white"/>
<path opacity="0.3" d="M82.3989 64.9934C84.5277 62.3577 85.7687 59.1359 85.9494 55.7753C86.1249 52.5103 85.202 49.2792 83.323 46.5811V46.5333C83.2911 46.4871 83.2559 46.4431 83.2176 46.4019C81.8234 44.4712 79.9756 42.8998 77.8312 41.8214C75.6868 40.7429 73.3092 40.1892 70.9004 40.2073C68.4103 40.226 65.9559 40.7916 63.7167 41.8626C61.4776 42.9337 59.5104 44.4833 57.9591 46.3979C57.9267 46.4337 57.8942 46.4656 57.8659 46.5015C57.8599 46.5151 57.8532 46.5284 57.8456 46.5413C55.7143 49.1775 54.4719 52.4009 54.2911 55.7634C54.1083 59.0397 55.0331 62.2836 56.9215 64.9895C56.92 65.0014 56.92 65.0134 56.9215 65.0253L56.958 65.0691C58.3502 67.0175 60.2028 68.6046 62.3568 69.694C64.5107 70.7834 66.9015 71.3425 69.3238 71.3234C71.8099 71.3043 74.2603 70.7401 76.4964 69.6719C78.7324 68.6037 80.6977 67.0584 82.249 65.1488C82.2862 65.1095 82.3214 65.0682 82.3543 65.0253C82.3699 65.0156 82.3848 65.005 82.3989 64.9934ZM69.4292 69.483C67.1635 69.483 65.2546 66.8817 64.2859 63.0454C66.0939 62.6892 67.9337 62.5117 69.7778 62.5156C71.6045 62.5116 73.427 62.6904 75.2169 63.0494C73.8632 66.8976 71.6948 69.483 69.4332 69.483H69.4292ZM69.871 60.6593C67.8701 60.6552 65.874 60.85 63.913 61.2409C63.6724 59.7405 63.5666 58.2222 63.5969 56.7035H76.5463C76.4193 58.2345 76.1617 59.7523 75.7762 61.2409C73.8347 60.8486 71.8572 60.6537 69.875 60.6593H69.871ZM56.1595 56.7035H61.7122C61.6728 58.3714 61.7867 60.0393 62.0527 61.687C60.6704 62.0692 59.3366 62.6037 58.0766 63.2805C56.8539 61.295 56.1934 59.0242 56.1636 56.7035H56.1595ZM58.8345 48.2742C60.0367 48.9557 61.3188 49.4907 62.6525 49.8676C62.2251 51.5028 61.9444 53.1717 61.8135 54.8551H56.2609C56.5449 52.4843 57.4298 50.2215 58.8345 48.2742ZM70.8113 42.0717C73.0769 42.0717 74.9819 44.673 75.9546 48.5092C74.1448 48.8632 72.3039 49.0407 70.4587 49.039C68.6321 49.0422 66.8099 48.8647 65.0195 48.5092C66.3732 44.673 68.5618 42.0717 70.8072 42.0717H70.8113ZM70.3695 50.8914C72.3703 50.8951 74.3664 50.7002 76.3275 50.3098C76.5662 51.8117 76.672 53.3312 76.6436 54.8511H63.6982C63.8229 53.3186 64.0805 51.7993 64.4683 50.3098C66.4084 50.7022 68.3846 50.8971 70.3654 50.8914H70.3695ZM84.0809 54.8511H78.5283C78.5658 53.182 78.4519 51.5129 78.1878 49.8636C79.5696 49.4802 80.9032 48.9457 82.1638 48.2702C83.3855 50.2576 84.0458 52.5293 84.0769 54.8511H84.0809ZM78.435 56.7035H83.9877C83.6998 59.0716 82.8137 61.3312 81.41 63.2765C80.2074 62.5959 78.9254 62.0609 77.592 61.683C78.0208 60.0508 78.3016 58.3845 78.431 56.7035H78.435ZM81.0898 46.7883C80.0438 47.3206 78.9451 47.7465 77.8109 48.0591C77.3921 46.2039 76.6132 44.4455 75.5169 42.8804C77.6929 43.6745 79.6149 45.0233 81.0857 46.7883H81.0898ZM66.0206 42.8883C64.7798 44.4381 63.8275 46.1913 63.2078 48.067C62.1148 47.7554 61.059 47.3294 60.0586 46.7962C61.6942 45.0397 63.7385 43.6988 66.0165 42.8883H66.0206ZM59.1588 64.7664C60.2043 64.235 61.3014 63.8079 62.4336 63.4916C62.8533 65.3465 63.6322 67.1046 64.7277 68.6703C62.5507 67.8777 60.6273 66.5303 59.1547 64.7664H59.1588ZM74.2361 68.6623C75.4796 67.1142 76.4321 65.3605 77.0489 63.4836C78.1423 63.7958 79.1982 64.2232 80.1981 64.7584C78.5618 66.5151 76.5158 67.8548 74.2361 68.6623Z" fill="#407BFF"/>
<path opacity="0.6" d="M50.1083 32.7579L44.2557 76.02H52.0457L57.8983 32.7579H50.1083Z" fill="white"/>
<path opacity="0.6" d="M60.5571 32.7579L54.7045 76.02H57.8983L63.7549 32.7579H60.5571Z" fill="white"/>
<path opacity="0.3" d="M70.4384 31.5029C70.4357 31.5666 70.4461 31.6302 70.4692 31.6898C70.4922 31.7494 70.5274 31.8037 70.5725 31.8495C70.6176 31.8954 70.6718 31.9317 70.7316 31.9563C70.7915 31.9809 70.8558 31.9933 70.9207 31.9927C71.0542 31.9918 71.1821 31.9403 71.278 31.8491C71.3738 31.7579 71.4302 31.6339 71.4355 31.5029C71.4382 31.4392 71.4277 31.3756 71.4047 31.316C71.3816 31.2565 71.3465 31.2021 71.3014 31.1563C71.2562 31.1105 71.2021 31.0741 71.1422 31.0495C71.0824 31.0249 71.018 31.0125 70.9531 31.0131C70.8197 31.0141 70.6917 31.0655 70.5959 31.1567C70.5 31.2479 70.4436 31.3719 70.4384 31.5029Z" fill="white"/>
<path d="M112.785 122.716H45.4595C44.5357 122.673 43.6503 122.34 42.9327 121.767C42.2151 121.193 41.703 120.409 41.4713 119.529L32.8546 82.5214C32.4493 80.7686 33.572 79.3345 35.3553 79.3345H102.676C103.6 79.3784 104.485 79.7113 105.202 80.2846C105.92 80.8579 106.432 81.6417 106.664 82.5214L115.281 119.529C115.695 121.282 114.568 122.716 112.785 122.716Z" fill="#407BFF"/>
<path opacity="0.4" d="M112.785 122.716H45.4595C44.5357 122.673 43.6503 122.34 42.9327 121.767C42.2151 121.193 41.703 120.409 41.4713 119.529L32.8546 82.5214C32.4493 80.7686 33.572 79.3345 35.3553 79.3345H102.676C103.6 79.3784 104.485 79.7113 105.202 80.2846C105.92 80.8579 106.432 81.6417 106.664 82.5214L115.281 119.529C115.695 121.282 114.568 122.716 112.785 122.716Z" fill="black"/>
<path d="M113.429 122.716H46.108C45.184 122.673 44.2983 122.341 43.5806 121.767C42.8628 121.194 42.3509 120.41 42.1198 119.529L33.5031 82.5173C33.0978 80.7645 34.2205 79.3304 36.0038 79.3304H103.325C104.248 79.3744 105.133 79.7073 105.851 80.2806C106.568 80.8539 107.081 81.6376 107.313 82.5173L115.93 119.525C116.339 121.282 115.212 122.716 113.429 122.716Z" fill="#407BFF"/>
<path opacity="0.2" d="M42.5454 104.244C42.1808 104.227 41.8312 104.096 41.5482 103.869C41.2651 103.643 41.0635 103.333 40.9728 102.985L36.3767 83.2304C36.3332 83.0834 36.3257 82.9284 36.3547 82.778C36.3837 82.6277 36.4485 82.4861 36.5437 82.365C36.6389 82.2439 36.7619 82.1465 36.9026 82.0809C37.0433 82.0153 37.1978 81.9833 37.3535 81.9875H103.203C103.568 82.0038 103.918 82.135 104.201 82.3616C104.484 82.5883 104.686 82.8985 104.776 83.2464L109.376 102.985C109.422 103.134 109.431 103.292 109.403 103.445C109.374 103.598 109.309 103.742 109.212 103.865C109.115 103.988 108.99 104.087 108.846 104.153C108.703 104.219 108.545 104.25 108.387 104.244H42.5454Z" fill="black"/>
<path opacity="0.2" d="M69.6764 119.772C69.4637 119.762 69.2597 119.686 69.0943 119.554C68.9288 119.422 68.8104 119.242 68.7564 119.039L66.0773 107.531C66.0508 107.444 66.0458 107.352 66.0625 107.263C66.0793 107.174 66.1174 107.09 66.1736 107.019C66.2299 106.947 66.3027 106.89 66.386 106.851C66.4693 106.813 66.5608 106.794 66.6528 106.798H85.467C85.6814 106.805 85.8874 106.881 86.0546 107.013C86.2218 107.145 86.3413 107.326 86.3952 107.531L89.0783 119.039C89.1047 119.126 89.1098 119.218 89.0931 119.307C89.0763 119.396 89.0382 119.479 88.982 119.551C88.9257 119.623 88.8529 119.68 88.7696 119.719C88.6862 119.757 88.5948 119.775 88.5028 119.772H69.6764Z" fill="black"/>
<path d="M115.265 93.9468L117.292 41.4546C117.306 41.1261 117.252 40.7982 117.135 40.4905C117.017 40.1827 116.837 39.9014 116.607 39.6634C116.376 39.4255 116.099 39.2356 115.792 39.1053C115.484 38.975 115.154 38.9069 114.819 38.9051L80.7737 38.6223C80.0851 38.6225 79.4231 38.8834 78.925 39.3507C78.4269 39.818 78.131 40.4559 78.0987 41.1319L76.0722 93.6201C76.0574 93.9489 76.1104 94.2773 76.2278 94.5855C76.3452 94.8937 76.5248 95.1755 76.7556 95.4139C76.9864 95.6523 77.2639 95.8425 77.5713 95.973C77.8786 96.1036 78.2097 96.1718 78.5445 96.1736L112.59 96.4565C113.278 96.4552 113.94 96.194 114.438 95.7269C114.936 95.2598 115.232 94.6225 115.265 93.9468Z" fill="#407BFF"/>
<path opacity="0.4" d="M115.265 93.9468L117.292 41.4546C117.306 41.1261 117.252 40.7982 117.135 40.4905C117.017 40.1827 116.837 39.9014 116.607 39.6634C116.376 39.4255 116.099 39.2356 115.792 39.1053C115.484 38.975 115.154 38.9069 114.819 38.9051L80.7737 38.6223C80.0851 38.6225 79.4231 38.8834 78.925 39.3507C78.4269 39.818 78.131 40.4559 78.0987 41.1319L76.0722 93.6201C76.0574 93.9489 76.1104 94.2773 76.2278 94.5855C76.3452 94.8937 76.5248 95.1755 76.7556 95.4139C76.9864 95.6523 77.2639 95.8425 77.5713 95.973C77.8786 96.1036 78.2097 96.1718 78.5445 96.1736L112.59 96.4565C113.278 96.4552 113.94 96.194 114.438 95.7269C114.936 95.2598 115.232 94.6225 115.265 93.9468Z" fill="black"/>
<path d="M116.015 93.9464L118.062 41.4542C118.075 41.1255 118.021 40.7975 117.903 40.4898C117.785 40.182 117.605 39.9008 117.374 39.6628C117.143 39.4249 116.865 39.2352 116.558 39.1049C116.251 38.9747 115.92 38.9066 115.585 38.9047L81.5316 38.6139C80.843 38.6142 80.181 38.875 79.6829 39.3423C79.1848 39.8097 78.8889 40.4475 78.8566 41.1236L76.8301 93.6118C76.8154 93.9406 76.8683 94.2689 76.9857 94.5771C77.1032 94.8854 77.2827 95.1671 77.5135 95.4055C77.7444 95.644 78.0218 95.8341 78.3292 95.9647C78.6366 96.0952 78.9676 96.1635 79.3025 96.1653L113.348 96.4481C114.034 96.4459 114.693 96.1852 115.189 95.7198C115.685 95.2544 115.981 94.6197 116.015 93.9464Z" fill="#407BFF"/>
<path opacity="0.9" d="M115.893 42.012C115.899 41.8824 115.878 41.7531 115.831 41.6317C115.784 41.5104 115.713 41.3995 115.622 41.3058C115.531 41.2121 115.421 41.1374 115.3 41.0862C115.179 41.0351 115.048 41.0085 114.916 41.0081L82.0423 40.7332C81.7707 40.734 81.5097 40.8374 81.3136 41.022C81.1174 41.2067 81.001 41.4584 80.9885 41.7251L78.9863 93.062C78.9809 93.1918 79.002 93.3213 79.0486 93.4429C79.0951 93.5644 79.1661 93.6755 79.2572 93.7696C79.3484 93.8636 79.4578 93.9387 79.5791 93.9903C79.7004 94.0419 79.831 94.0689 79.9631 94.0699L112.837 94.3408C113.109 94.3411 113.369 94.2385 113.566 94.0545C113.762 93.8705 113.879 93.6192 113.891 93.3529L115.893 42.012Z" fill="white"/>
<path opacity="0.3" d="M109.664 76.558C111.639 74.1093 112.79 71.1176 112.959 67.9972C113.128 64.9596 112.273 61.9521 110.527 59.4403V59.4005C110.499 59.3552 110.465 59.3137 110.426 59.277C109.131 57.4918 107.418 56.0395 105.431 55.043C103.444 54.0466 101.243 53.5353 99.0123 53.5525C96.7001 53.5705 94.4212 54.096 92.3421 55.0905C90.2629 56.085 88.4361 57.5235 86.9951 59.3009C86.9645 59.3323 86.9361 59.3655 86.91 59.4005L86.8897 59.4364C84.8968 61.878 83.7317 64.8716 83.5581 67.9972C83.3844 71.0377 84.2394 74.0492 85.9899 76.5619C85.9914 76.5738 85.9914 76.5859 85.9899 76.5978L86.0264 76.6376C87.3226 78.4492 89.0478 79.9235 91.0532 80.9333C93.0586 81.9431 95.2839 82.4581 97.537 82.4338C99.8454 82.4168 102.121 81.8933 104.197 80.9015C106.273 79.9098 108.098 78.4748 109.538 76.7014C109.574 76.6661 109.608 76.6288 109.639 76.5898L109.664 76.558ZM97.6221 80.7248C95.5227 80.7248 93.7515 78.3068 92.8477 74.7494C94.5265 74.4198 96.2344 74.2543 97.9464 74.2554C99.6476 74.2507 101.345 74.4148 103.013 74.7454C101.74 78.3068 99.7257 80.7248 97.6221 80.7248ZM98.0274 72.5345C96.1696 72.5303 94.3161 72.7104 92.495 73.0723C92.2715 71.6786 92.1725 70.2683 92.1992 68.8576H104.229C104.111 70.2798 103.871 71.6897 103.511 73.0723C101.71 72.7088 99.8747 72.5286 98.0356 72.5345H98.0274ZM85.2968 68.8576H90.4483C90.4092 70.4069 90.515 71.9564 90.7644 73.4866C89.4812 73.8401 88.2426 74.3345 87.0721 74.9605C85.942 73.1166 85.332 71.0101 85.305 68.8576H85.2968ZM87.7733 61.0338C88.8899 61.6653 90.0808 62.1603 91.3197 62.5077C90.9204 64.0263 90.6586 65.5767 90.5374 67.1407H85.3901C85.6538 64.9402 86.4761 62.8402 87.7814 61.0338H87.7733ZM98.8907 55.2735C100.994 55.2735 102.765 57.6875 103.669 61.2489C101.989 61.5804 100.28 61.7458 98.5665 61.7429C96.8704 61.7477 95.1783 61.5822 93.5164 61.2489C94.785 57.6875 96.7953 55.2735 98.8989 55.2735H98.8907ZM98.4854 63.4638C100.345 63.466 102.2 63.2818 104.022 62.9141C104.244 64.3092 104.341 65.7208 104.314 67.1327H92.2964C92.4115 65.7091 92.6501 64.2977 93.0098 62.9141C94.8121 63.2834 96.6485 63.4676 98.4895 63.4638H98.4854ZM111.216 67.1407H106.065C106.1 65.5902 105.994 64.0397 105.748 62.5077C107.032 62.156 108.271 61.6615 109.441 61.0338C110.575 62.878 111.189 64.9859 111.22 67.1407H111.216ZM105.975 68.8576H111.119C110.851 71.0559 110.029 73.1538 108.727 74.9605C107.61 74.3315 106.419 73.8366 105.181 73.4866C105.584 71.9694 105.851 70.4205 105.98 68.8576H105.975ZM108.44 59.6515C107.469 60.1502 106.449 60.5507 105.396 60.8466C105.007 59.127 104.284 57.4973 103.268 56.0463C105.287 56.7767 107.073 58.0208 108.444 59.6515H108.44ZM94.4486 56.0343C93.2951 57.4691 92.4112 59.0947 91.8384 60.8346C90.8227 60.5429 89.8427 60.1421 88.9162 59.6395C90.4382 58.0157 92.3379 56.7786 94.4527 56.0343H94.4486ZM88.0772 76.3508C89.0466 75.852 90.0651 75.4516 91.117 75.1557C91.5092 76.8749 92.2329 78.5044 93.2489 79.956C91.2314 79.2242 89.448 77.9787 88.0813 76.3468L88.0772 76.3508ZM102.068 79.9679C103.219 78.5316 104.103 76.9065 104.678 75.1677C105.693 75.4619 106.673 75.8625 107.601 76.3628C106.082 77.9852 104.184 79.2209 102.072 79.9639L102.068 79.9679Z" fill="#407BFF"/>
<path opacity="0.6" d="M89.1473 40.7929L83.3069 94.0978L91.0887 94.1615L96.9292 40.8566L89.1473 40.7929Z" fill="white"/>
<path opacity="0.6" d="M99.5838 40.8806L93.7434 94.1855L96.9372 94.2094L102.778 40.9045L99.5838 40.8806Z" fill="white"/>
<path opacity="0.3" d="M97.7924 40.1037C97.8999 40.1037 98.003 40.0618 98.079 39.9871C98.155 39.9124 98.1977 39.811 98.1977 39.7054C98.201 39.6542 98.1937 39.603 98.176 39.5547C98.1584 39.5065 98.1308 39.4623 98.0951 39.425C98.0594 39.3876 98.0162 39.3579 97.9684 39.3376C97.9205 39.3173 97.8689 39.3069 97.8167 39.307C97.7092 39.307 97.6061 39.349 97.5301 39.4237C97.4541 39.4984 97.4114 39.5997 97.4114 39.7054C97.4081 39.7565 97.4155 39.8078 97.4331 39.856C97.4508 39.9043 97.4783 39.9484 97.514 39.9857C97.5497 40.0231 97.5929 40.0528 97.6408 40.0731C97.6887 40.0934 97.7403 40.1038 97.7924 40.1037Z" fill="white"/>
<path d="M125.527 108.017L127.574 66.818C127.588 66.4893 127.535 66.1612 127.417 65.8532C127.3 65.5452 127.12 65.2637 126.889 65.0254C126.659 64.7871 126.381 64.5969 126.074 64.4662C125.767 64.3354 125.436 64.2668 125.102 64.2644L105.416 63.9856C104.728 63.9858 104.067 64.2461 103.569 64.7126C103.071 65.1791 102.774 65.8159 102.741 66.4913L100.715 107.694C100.7 108.022 100.754 108.35 100.871 108.658C100.989 108.966 101.169 109.247 101.4 109.485C101.63 109.723 101.908 109.913 102.215 110.043C102.522 110.173 102.852 110.242 103.187 110.243L122.873 110.526C123.558 110.521 124.215 110.258 124.708 109.791C125.202 109.324 125.495 108.689 125.527 108.017Z" fill="#407BFF"/>
<path opacity="0.4" d="M125.527 108.017L127.574 66.818C127.588 66.4893 127.535 66.1612 127.417 65.8532C127.3 65.5452 127.12 65.2637 126.889 65.0254C126.659 64.7871 126.381 64.5969 126.074 64.4662C125.767 64.3354 125.436 64.2668 125.102 64.2644L105.416 63.9856C104.728 63.9858 104.067 64.2461 103.569 64.7126C103.071 65.1791 102.774 65.8159 102.741 66.4913L100.715 107.694C100.7 108.022 100.754 108.35 100.871 108.658C100.989 108.966 101.169 109.247 101.4 109.485C101.63 109.723 101.908 109.913 102.215 110.043C102.522 110.173 102.852 110.242 103.187 110.243L122.873 110.526C123.558 110.521 124.215 110.258 124.708 109.791C125.202 109.324 125.495 108.689 125.527 108.017Z" fill="black"/>
<path d="M126.281 108.017L128.308 66.818C128.322 66.4891 128.27 66.1608 128.152 65.8526C128.035 65.5444 127.855 65.2626 127.624 65.0242C127.393 64.7858 127.116 64.5956 126.809 64.465C126.501 64.3345 126.17 64.2663 125.835 64.2644L106.15 63.9856C105.462 63.9859 104.801 64.2463 104.304 64.7129C103.807 65.1794 103.511 65.8163 103.479 66.4913L101.432 107.694C101.418 108.022 101.471 108.35 101.589 108.658C101.707 108.966 101.886 109.247 102.117 109.485C102.348 109.723 102.625 109.913 102.932 110.043C103.239 110.173 103.57 110.242 103.904 110.243L123.59 110.526C124.281 110.529 124.947 110.27 125.448 109.802C125.949 109.335 126.248 108.695 126.281 108.017Z" fill="#407BFF"/>
<path opacity="0.9" d="M126.16 67.3756C126.164 67.246 126.143 67.1167 126.096 66.9954C126.049 66.8741 125.978 66.7632 125.887 66.6693C125.796 66.5754 125.687 66.5003 125.566 66.4485C125.445 66.3968 125.315 66.3693 125.183 66.3678L106.66 66.1009C106.389 66.1016 106.128 66.205 105.932 66.3897C105.736 66.5744 105.619 66.8261 105.607 67.0928L103.613 107.132C103.607 107.262 103.628 107.391 103.675 107.513C103.721 107.635 103.792 107.746 103.883 107.84C103.975 107.934 104.084 108.009 104.205 108.06C104.327 108.112 104.457 108.139 104.589 108.14L123.104 108.411C123.375 108.411 123.636 108.309 123.832 108.125C124.028 107.941 124.145 107.689 124.157 107.423L126.16 67.3756Z" fill="white"/>
<path opacity="0.3" d="M121.884 92.7911C123.097 91.2887 123.806 89.4524 123.91 87.5368C124.013 85.6714 123.487 83.8248 122.415 82.2824C122.415 82.2824 122.415 82.2824 122.415 82.2585C122.398 82.2316 122.379 82.2063 122.358 82.1828C121.562 81.0871 120.509 80.1959 119.289 79.5843C118.068 78.9728 116.716 78.6589 115.346 78.6693C113.927 78.6799 112.529 79.0023 111.253 79.6131C109.977 80.2238 108.857 81.1072 107.974 82.1987L107.917 82.2585V82.2824C106.701 83.7837 105.993 85.6206 105.89 87.5368C105.783 89.4039 106.309 91.2532 107.386 92.7951V92.815C107.386 92.815 107.386 92.815 107.406 92.8389C108.201 93.9438 109.256 94.8429 110.481 95.459C111.707 96.0751 113.066 96.3899 114.442 96.3764C115.859 96.3657 117.255 96.0444 118.529 95.4359C119.803 94.8273 120.923 93.9469 121.807 92.8589C121.83 92.8369 121.852 92.8129 121.872 92.7872L121.884 92.7911ZM114.495 95.3486C113.202 95.3486 112.116 93.8667 111.565 91.6797C112.595 91.4777 113.643 91.3763 114.694 91.377C115.735 91.3752 116.774 91.4767 117.794 91.6797C117.02 93.8468 115.784 95.3287 114.495 95.3287V95.3486ZM114.746 90.3213C113.606 90.319 112.468 90.4298 111.35 90.6519C111.214 89.7969 111.155 88.9318 111.171 88.0666H118.548C118.478 88.9391 118.332 89.8041 118.11 90.6519C117.011 90.4234 115.89 90.306 114.767 90.3014L114.746 90.3213ZM106.932 88.0666H110.097C110.075 89.0172 110.14 89.9678 110.292 90.9069C109.503 91.1234 108.742 91.4267 108.022 91.8112C107.324 90.6743 106.948 89.3746 106.932 88.0467V88.0666ZM108.452 83.2305C109.138 83.6164 109.869 83.92 110.628 84.1348C110.384 85.0671 110.224 86.0189 110.15 86.9791H106.985C107.147 85.6286 107.652 84.3398 108.452 83.2305ZM115.277 79.693C116.57 79.693 117.656 81.1749 118.212 83.3619C117.18 83.5657 116.131 83.6672 115.079 83.6647C114.037 83.6684 112.998 83.5669 111.978 83.3619C112.74 81.1869 113.988 79.705 115.277 79.705V79.693ZM115.026 84.7203C116.167 84.7227 117.304 84.6119 118.422 84.3897C118.558 85.2461 118.618 86.1125 118.601 86.9791H111.224C111.296 86.1054 111.442 85.2392 111.662 84.3897C112.768 84.6169 113.896 84.7317 115.026 84.7323V84.7203ZM122.84 86.9791H119.675C119.697 86.0271 119.632 85.0752 119.48 84.1348C120.269 83.9183 121.03 83.6149 121.75 83.2305C122.447 84.3663 122.824 85.6645 122.84 86.991V86.9791ZM119.63 88.0467H122.796C122.633 89.3957 122.128 90.6831 121.328 91.7913C120.642 91.4053 119.912 91.1017 119.152 90.887C119.396 89.9559 119.556 89.0054 119.63 88.0467ZM121.146 82.3939C120.55 82.6971 119.924 82.94 119.278 83.1189C119.038 82.0628 118.593 81.0619 117.968 80.1711C119.206 80.6233 120.3 81.3903 121.138 82.3939H121.146ZM112.558 80.1711C111.844 81.0514 111.295 82.0496 110.936 83.1189C110.313 82.9425 109.711 82.6994 109.141 82.3939C110.077 81.3924 111.247 80.6295 112.55 80.1711H112.558ZM108.646 92.6398C109.242 92.3376 109.866 92.0947 110.511 91.9147C110.752 92.9703 111.197 93.9709 111.82 94.8626C110.577 94.4138 109.478 93.6464 108.638 92.6398H108.646ZM117.231 94.8626C117.945 93.9823 118.494 92.9841 118.852 91.9147C119.475 92.0929 120.077 92.336 120.647 92.6398C119.707 93.6435 118.531 94.4065 117.223 94.8626H117.231Z" fill="#407BFF"/>
<path opacity="0.6" d="M110.089 66.1487L105.526 108.152L111.629 108.244L116.234 66.2363L110.089 66.1487Z" fill="white"/>
<path opacity="0.6" d="M118.329 66.2682L113.725 108.276L116.246 108.311L120.85 66.304L118.329 66.2682Z" fill="white"/>
<path opacity="0.3" d="M108.026 65.5273C108.134 65.5273 108.237 65.4853 108.313 65.4106C108.389 65.3359 108.432 65.2346 108.432 65.1289C108.432 65.0273 108.393 64.9294 108.322 64.8553C108.251 64.7813 108.154 64.7366 108.051 64.7305C107.943 64.7305 107.84 64.7725 107.764 64.8472C107.688 64.9219 107.645 65.0232 107.645 65.1289C107.645 65.2305 107.685 65.3284 107.755 65.4025C107.826 65.4765 107.923 65.5212 108.026 65.5273Z" fill="white"/>
</svg>
