<svg width="31" height="40" viewBox="0 0 31 40" fill="none" xmlns="http://www.w3.org/2000/svg">
<path d="M15.4983 0C10.9316 0 7.22649 3.35938 7.22649 7.5V20C7.22649 24.1406 10.9316 27.5 15.4983 27.5C20.065 27.5 23.7701 24.1406 23.7701 20V7.5C23.7701 3.35938 20.065 0 15.4983 0ZM4.46922 16.875C4.46922 15.8359 3.54726 15 2.40127 15C1.25528 15 0.333313 15.8359 0.333313 16.875V20C0.333313 26.9609 6.03742 32.7109 13.4304 33.625V36.25H9.29445C8.14846 36.25 7.22649 37.0859 7.22649 38.125C7.22649 39.1641 8.14846 40 9.29445 40H15.4983H21.7022C22.8482 40 23.7701 39.1641 23.7701 38.125C23.7701 37.0859 22.8482 36.25 21.7022 36.25H17.5663V33.625C24.9592 32.7109 30.6633 26.9609 30.6633 20V16.875C30.6633 15.8359 29.7414 15 28.5954 15C27.4494 15 26.5274 15.8359 26.5274 16.875V20C26.5274 25.5234 21.5902 30 15.4983 30C9.40646 30 4.46922 25.5234 4.46922 20V16.875Z" fill="white"/>
</svg>
