<svg width="23" height="18" viewBox="0 0 23 18" fill="none" xmlns="http://www.w3.org/2000/svg">
<path d="M2.15625 0C0.96582 0 0 0.955742 0 2.13375C0 2.80499 0.318945 3.43623 0.8625 3.84075L10.6375 11.0955C11.1496 11.4734 11.8504 11.4734 12.3625 11.0955L22.1375 3.84075C22.6811 3.43623 23 2.80499 23 2.13375C23 0.955742 22.0342 0 20.8438 0H2.15625ZM0 4.97875V14.225C0 15.7942 1.28926 17.07 2.875 17.07H20.125C21.7107 17.07 23 15.7942 23 14.225V4.97875L13.225 12.2335C12.2008 12.9936 10.7992 12.9936 9.775 12.2335L0 4.97875Z" fill="white"/>
</svg>
