<svg width="48" height="32" viewBox="0 0 48 32" fill="none" xmlns="http://www.w3.org/2000/svg">
<path d="M39.5391 5.92958C38.1352 4.3538 34.7375 1.11317 29.9531 0.374892C28.1953 0.112861 26.407 0.656611 24.9992 1.79755C23.5938 0.724111 21.8047 0.17333 20.0391 0.44208C13.8125 1.4038 9.89844 6.64052 9.73438 6.86708C9.12156 7.70224 9.30227 8.87645 10.1348 9.48974C10.4692 9.73638 10.8598 9.85356 11.2434 9.85356C11.822 9.85356 12.391 9.58989 12.7574 9.08934C12.7892 9.04539 15.8973 4.87763 20.609 4.1495C21.1916 4.07442 21.7793 4.20184 22.2934 4.49974L17.75 9.14052C16.7812 10.1015 16.1797 11.3202 16.1797 12.7577C16.1797 14.1249 16.7119 15.4093 17.6766 16.3741C18.7109 17.3436 19.9922 17.8046 21.3594 17.8046C22.7266 17.8046 24.0109 17.2723 24.9773 16.3054L25.8641 15.4186L35.5672 23.3015C35.7478 23.4479 35.7747 23.7117 35.6063 23.9241L33.443 26.7171C33.2989 26.8929 33.0328 26.9197 32.8839 26.8001L31.148 25.34L29.1019 27.5079C28.9188 27.7325 28.6844 27.7863 28.5623 27.7985C28.433 27.8107 28.2059 27.8083 28.0302 27.6642L25.4981 25.5033L24.2734 26.6483L24.0537 26.8779C23.5972 27.437 22.953 27.7888 22.235 27.8622C21.4952 27.9257 20.8092 27.7255 20.3209 27.3324L13.3047 20.9843H7.5V6.02333H0V25.9921L5 25.9952C5.91719 25.9952 6.68516 25.4713 7.12031 24.7343H11.8578L17.8781 30.1765C19.0391 31.1249 20.4609 31.6249 21.9375 31.6249C22.1621 31.6249 22.3891 31.6151 22.6138 31.5907C23.6778 31.4809 24.677 31.117 25.5411 30.536L25.6119 30.5995C26.5517 31.3711 27.7431 31.7253 28.947 31.5979C29.9775 31.4905 30.922 31.0486 31.5963 30.3987C33.2439 31.0384 35.197 30.5818 36.3814 29.112L38.5447 26.319C39.9877 24.5362 39.7142 21.9065 37.9319 20.4589L28.5335 12.8214L29.1882 12.1665C29.9206 11.434 29.9206 10.247 29.1882 9.51497C28.4558 8.78247 27.2695 8.78247 26.5367 9.51497L22.3281 13.7186C21.8125 14.2421 20.9141 14.2421 20.3984 13.7186C20.1397 13.4622 19.998 13.1204 19.998 12.7569C19.998 12.3907 20.1396 12.0488 20.4106 11.778L27.1223 4.93114C27.7327 4.31825 28.57 4.01317 29.3833 4.14755C34.0513 4.86786 37.2114 9.04833 37.2427 9.09208C37.4839 9.41669 37.8102 9.63474 38.1677 9.74645H42.5V23.4261C42.5 24.8066 43.6195 25.93 44.9297 25.93L50 25.9999V6.00771L39.5391 5.92958ZM3.75 23.4999C3.06641 23.4999 2.5 22.9339 2.5 22.2507C2.5 21.5572 3.06641 21.0015 3.75 21.0015C4.43359 21.0015 5 21.5624 5 22.2577C5 22.9374 4.43359 23.4999 3.75 23.4999ZM46.25 23.4999C45.5664 23.4999 45 22.9339 45 22.2507C45 21.5572 45.5664 21.0015 46.25 21.0015C46.9336 21.0015 47.5 21.5575 47.5 22.2507C47.5 22.9374 46.9375 23.4999 46.25 23.4999Z" fill="white"/>
</svg>
