<svg width="500" height="500" viewBox="0 0 500 500" fill="none" xmlns="http://www.w3.org/2000/svg">
<path d="M439.583 230.208L269.792 60.4167C264.583 55.2084 257.292 52.0834 250 52.0834C242.708 52.0834 235.417 55.2084 230.208 60.4167L193.75 96.875L236.458 139.583C240.625 137.5 244.792 136.458 250 136.458C267.708 136.458 281.25 150 281.25 167.708C281.25 172.917 280.208 177.083 278.125 181.25L319.792 222.917C323.958 220.833 328.125 219.792 333.333 219.792C351.042 219.792 364.583 233.333 364.583 251.042C364.583 268.75 351.042 282.292 333.333 282.292C315.625 282.292 302.083 268.75 302.083 251.042C302.083 245.833 303.125 241.667 305.208 237.5L263.542 195.833C262.5 195.833 261.458 196.875 260.417 196.875V305.208C272.917 309.375 281.25 320.833 281.25 334.375C281.25 352.083 267.708 365.625 250 365.625C232.292 365.625 218.75 352.083 218.75 334.375C218.75 320.833 227.083 309.375 239.583 305.208V195.833C227.083 191.667 218.75 180.208 218.75 166.667C218.75 161.458 219.792 157.292 221.875 153.125L179.167 110.417L60.4166 230.208C55.2083 235.417 52.0833 242.708 52.0833 250C52.0833 257.292 55.2083 264.583 60.4166 269.792L230.208 439.583C235.417 444.792 242.708 447.917 250 447.917C257.292 447.917 264.583 444.792 269.792 439.583L439.583 269.792C444.792 264.583 447.917 257.292 447.917 250C447.917 242.708 444.792 235.417 439.583 230.208Z" fill="#F4511E"/>
</svg>
