<svg width="23" height="21" viewBox="0 0 23 21" fill="none" xmlns="http://www.w3.org/2000/svg">
<path d="M7.69294 16.8609C7.69294 16.9475 7.58629 17.0167 7.45181 17.0167C7.29879 17.0297 7.19214 16.9604 7.19214 16.8609C7.19214 16.7743 7.29879 16.705 7.43327 16.705C7.57238 16.692 7.69294 16.7613 7.69294 16.8609ZM6.25081 16.666C6.21835 16.7526 6.31109 16.8522 6.4502 16.8782C6.57077 16.9215 6.70988 16.8782 6.7377 16.7916C6.76552 16.705 6.67742 16.6054 6.53831 16.5664C6.41774 16.5361 6.28327 16.5794 6.25081 16.666ZM8.3004 16.5924C8.16593 16.6227 8.07318 16.705 8.0871 16.8046C8.10101 16.8912 8.22157 16.9475 8.36069 16.9171C8.49516 16.8868 8.5879 16.8046 8.57399 16.718C8.56008 16.6357 8.43488 16.5794 8.3004 16.5924ZM11.3516 0C4.91996 0 0 4.55945 0 10.5651C0 15.367 3.23669 19.4762 7.85988 20.9224C8.45343 21.0219 8.6621 20.6799 8.6621 20.3984C8.6621 20.13 8.64819 18.6491 8.64819 17.7398C8.64819 17.7398 5.40222 18.3893 4.72056 16.4495C4.72056 16.4495 4.19194 15.1895 3.43145 14.8647C3.43145 14.8647 2.36956 14.1849 3.50565 14.1979C3.50565 14.1979 4.66028 14.2845 5.29556 15.3151C6.31109 16.9864 8.0129 16.5058 8.67601 16.22C8.78266 15.5272 9.08407 15.0466 9.41794 14.7608C6.82581 14.4924 4.21048 14.1416 4.21048 9.97622C4.21048 8.78549 4.5629 8.18795 5.30484 7.42588C5.18427 7.14443 4.79012 5.984 5.4254 4.48584C6.39456 4.20439 8.625 5.65493 8.625 5.65493C9.55242 5.41245 10.5494 5.28688 11.5371 5.28688C12.5248 5.28688 13.5218 5.41245 14.4492 5.65493C14.4492 5.65493 16.6796 4.20006 17.6488 4.48584C18.2841 5.98833 17.8899 7.14443 17.7694 7.42588C18.5113 8.19228 18.9657 8.78981 18.9657 9.97622C18.9657 14.1546 16.2345 14.488 13.6423 14.7608C14.069 15.1029 14.4306 15.7524 14.4306 16.7699C14.4306 18.2291 14.4167 20.0347 14.4167 20.3898C14.4167 20.6712 14.63 21.0133 15.219 20.9137C19.856 19.4762 23 15.367 23 10.5651C23 4.55945 17.7833 0 11.3516 0ZM4.50726 14.934C4.44698 14.9773 4.46089 15.0769 4.53972 15.1592C4.61391 15.2285 4.72056 15.2588 4.78085 15.2025C4.84113 15.1592 4.82722 15.0596 4.74839 14.9773C4.67419 14.908 4.56754 14.8777 4.50726 14.934ZM4.00645 14.5833C3.97399 14.6396 4.02036 14.7089 4.1131 14.7522C4.1873 14.7955 4.28004 14.7825 4.3125 14.7219C4.34496 14.6656 4.29859 14.5963 4.20585 14.553C4.1131 14.527 4.03891 14.54 4.00645 14.5833ZM5.50887 16.1248C5.43468 16.1811 5.4625 16.311 5.56915 16.3932C5.67581 16.4928 5.81028 16.5058 5.87056 16.4365C5.93085 16.3802 5.90302 16.2503 5.81028 16.1681C5.70827 16.0685 5.56915 16.0555 5.50887 16.1248ZM4.98024 15.4883C4.90605 15.5316 4.90605 15.6441 4.98024 15.7437C5.05444 15.8433 5.17964 15.8866 5.23992 15.8433C5.31411 15.787 5.31411 15.6744 5.23992 15.5749C5.175 15.4753 5.05444 15.432 4.98024 15.4883Z" fill="white"/>
</svg>
