<svg width="371" height="372" viewBox="0 0 371 372" fill="none" xmlns="http://www.w3.org/2000/svg">
<g clip-path="url(#clip0_509_57)">
<path d="M347.773 182.981C347.773 163.876 330.698 148.389 309.635 148.389C308.28 148.389 306.944 148.454 305.627 148.579L358.009 8.44824H135.403L187.711 148.458C186.944 148.416 186.173 148.389 185.394 148.389C164.331 148.389 147.256 163.876 147.256 182.981C147.256 198.423 158.414 211.497 173.814 215.945C165.68 228.725 155.446 240.234 143.826 250.177C128.025 263.698 109.942 273.95 90.3843 280.267C67.0983 269.417 56.1016 245.286 66.0244 224.129C67.1447 221.741 68.2881 219.318 69.3823 216.908C86.2512 213.336 98.8217 199.618 98.8217 183.229C98.8217 164.124 81.747 148.637 60.6841 148.637C39.6197 148.637 22.545 164.124 22.545 183.229C22.545 194.945 28.9722 205.291 38.7951 211.55C29.3548 231.045 15.48 251.446 11.157 275.091C5.97604 303.43 11.1411 333.51 38.1617 350.498C101.093 390.058 169.403 325.973 241.428 309.863C267.53 304.024 296.182 304.965 319.18 292.884C336.45 283.811 347.835 268.776 351.067 251.895C354.258 235.22 349.605 218.616 338.904 205.153C344.438 199.149 347.773 191.42 347.773 182.981ZM223.528 183.103C223.528 183.062 223.533 183.021 223.533 182.981C223.533 170.435 216.168 159.449 205.148 153.385L246.781 77.0251L288.487 154.195C278.245 160.396 271.496 170.973 271.496 182.981C271.496 183.233 271.512 183.481 271.518 183.733L223.528 183.103Z" fill="#C63D14"/>
<path d="M357.086 182.981C357.086 161.969 340.395 144.436 318.409 140.691L371 0H122.41L175.08 140.976C153.859 145.26 137.941 162.461 137.941 182.981C137.941 198.39 146.919 211.926 160.375 219.531C153.903 228.277 146.228 236.507 137.432 244.032C123.485 255.968 107.945 265.019 91.1921 270.974C74.3189 261.36 67.1858 243.23 74.5942 227.435L75.1739 226.2C75.5362 225.427 75.9 224.651 76.2623 223.876C94.7949 218.014 108.135 202.013 108.135 183.229C108.135 159.496 86.8474 140.189 60.6817 140.189C34.5161 140.189 13.23 159.496 13.23 183.229C13.23 195.208 18.6573 206.055 27.3932 213.866C25.8092 216.929 24.144 220.041 22.4325 223.23C14.4444 238.112 5.39114 254.979 1.96664 273.709C-4.83454 310.908 6.1346 340.644 32.8538 357.441C49.0677 367.633 65.5323 371.642 82.1012 371.641C113.301 371.64 144.861 357.424 175.729 343.516C197.962 333.501 220.949 323.144 243.657 318.065C252.106 316.175 260.8 315.038 270.004 313.834C288.255 311.446 307.13 308.977 323.848 300.195C343.226 290.014 356.492 272.936 360.243 253.341C363.463 236.52 359.586 219.673 350.134 205.385C354.541 198.854 357.086 191.183 357.086 182.981ZM338.458 182.981C338.458 197.397 325.528 209.126 309.633 209.126C293.741 209.126 280.809 197.397 280.809 182.981C280.809 168.565 293.741 156.837 309.633 156.837C325.528 156.837 338.458 168.565 338.458 182.981ZM345.014 16.8964L298.574 141.133C296.561 141.57 294.599 142.122 292.693 142.786L246.817 57.8992L200.807 142.284C198.818 141.662 196.772 141.151 194.674 140.772L148.393 16.8964H345.014ZM185.393 156.837C201.286 156.837 214.216 168.565 214.216 182.981C214.216 197.397 201.286 209.126 185.393 209.126C169.501 209.126 156.569 197.397 156.569 182.981C156.569 168.565 169.501 156.837 185.393 156.837ZM60.6817 157.085C76.5768 157.085 89.5067 168.813 89.5067 183.229C89.5067 197.645 76.5768 209.374 60.6817 209.374C44.7896 209.374 31.8582 197.645 31.8582 183.229C31.8582 168.813 44.7896 157.085 60.6817 157.085ZM341.888 250.451C339.084 265.105 329.105 277.906 314.511 285.572C300.907 292.719 284.605 294.853 267.345 297.11C258.099 298.319 248.537 299.57 239.197 301.66C214.499 307.184 190.577 317.961 167.443 328.384C121.147 349.241 81.165 367.252 43.4665 343.553C15.8516 326.194 17.1269 294.075 20.3442 276.474C23.3252 260.167 31.3858 245.149 39.1811 230.626C40.5304 228.112 41.8404 225.65 43.1259 223.204C46.9924 224.607 51.1039 225.562 55.3892 225.996C47.4547 249.75 59.9339 275.577 86.1257 287.782L89.7096 289.453L93.5065 288.226C114.213 281.538 133.292 270.804 150.216 256.322C161.156 246.962 170.557 236.605 178.287 225.538C180.606 225.855 182.978 226.022 185.393 226.022C211.558 226.022 232.846 206.715 232.846 182.981C232.846 170.217 226.682 158.739 216.921 150.849L246.743 96.1508L276.867 151.892C267.829 159.734 262.181 170.766 262.181 182.981C262.181 206.715 283.467 226.022 309.633 226.022C319.686 226.022 329.012 223.165 336.693 218.309C342.026 228.211 344.013 239.352 341.888 250.451Z" fill="white"/>
</g>
<defs>
<clipPath id="clip0_509_57">
<rect width="371" height="372" fill="white"/>
</clipPath>
</defs>
</svg>
