<svg width="23" height="20" viewBox="0 0 23 20" fill="none" xmlns="http://www.w3.org/2000/svg">
<path d="M21.3571 0H1.63772C0.734152 0 0 0.647322 0 1.44196V18.558C0 19.3527 0.734152 20 1.63772 20H21.3571C22.2607 20 23 19.3527 23 18.558V1.44196C23 0.647322 22.2607 0 21.3571 0ZM6.95134 17.1429H3.54241V7.59821H6.95647V17.1429H6.95134ZM5.24687 6.29464C4.15335 6.29464 3.27031 5.52232 3.27031 4.57589C3.27031 3.62946 4.15335 2.85714 5.24687 2.85714C6.33527 2.85714 7.22344 3.62946 7.22344 4.57589C7.22344 5.52679 6.3404 6.29464 5.24687 6.29464ZM19.7297 17.1429H16.3208V12.5C16.3208 11.3929 16.2951 9.96875 14.5496 9.96875C12.7732 9.96875 12.5011 11.1741 12.5011 12.4196V17.1429H9.09219V7.59821H12.3625V8.90179H12.4087C12.8656 8.15179 13.9797 7.36161 15.6379 7.36161C19.0879 7.36161 19.7297 9.33929 19.7297 11.9107V17.1429Z" fill="white"/>
</svg>
