<svg width="50" height="42" viewBox="0 0 50 42" fill="none" xmlns="http://www.w3.org/2000/svg">
<path d="M25 4.5C14.6387 4.5 6.09375 11.9438 4.84375 21.5625C5.76172 21.2062 6.75781 21 7.8125 21C10.4004 21 12.5 23.0156 12.5 25.5V37.5C12.5 39.9844 10.4004 42 7.8125 42C3.49609 42 0 38.6437 0 34.5V33V28.5V24C0 10.7438 11.1914 0 25 0C38.8086 0 50 10.7438 50 24V28.5V33V34.5C50 38.6437 46.5039 42 42.1875 42C39.5996 42 37.5 39.9844 37.5 37.5V25.5C37.5 23.0156 39.5996 21 42.1875 21C43.2422 21 44.2383 21.1969 45.1562 21.5625C43.9062 11.9438 35.3613 4.5 25 4.5Z" fill="white"/>
</svg>
