<svg width="480" height="480" viewBox="0 0 480 480" fill="none" xmlns="http://www.w3.org/2000/svg">
<g clip-path="url(#clip0_509_25)">
<path d="M0.02 350.41H19.22V279.56L45.89 340.13C49.18 347.68 53.68 350.35 62.51 350.35C71.34 350.35 75.66 347.68 78.95 340.13L105.62 281.11V350.41H124.82V277.83C124.82 270.86 122.05 267.48 116.33 265.74C102.66 261.44 93.48 265.15 89.33 274.46L61.98 336.06L35.49 274.46C31.51 265.16 22.17 261.44 8.49 265.74C2.77 267.48 0 270.85 0 277.82V350.4H0.02V350.41Z" fill="#00796B"/>
<path d="M134.41 292.81H153.61V333.36C153.46 335.36 154.25 340.67 163.51 340.81C168.23 340.89 191.72 340.81 192.01 340.81V292.81H211.21C211.29 292.81 211.21 352.49 211.21 352.74C211.31 367.46 192.93 369.36 184.48 369.61H134.42V360.01C134.52 360.01 182.29 360.02 182.43 360.01C193.31 358.86 192.02 352.87 192.02 351.05V350.41H161.9C145.2 350.26 134.55 342.9 134.43 334.51C134.41 333.73 134.79 293.17 134.41 292.81Z" fill="#00796B"/>
<path d="M220.81 350.41H268.88C275.18 350.41 281.3 349.09 286.16 346.81C294.26 343.09 297.6 338.06 297.6 331.45V317.77C297.6 303.01 279.3 302.41 268.8 302.41H249.6C242.05 302.41 240.9 297.85 240 292.81V283.21C240.9 279.37 242.58 274.21 249.23 273.61C256.96 273.61 297.59 273.61 297.59 273.61V264.01H251.93C244.38 264.01 220.79 264.91 220.79 283.21V295.08C220.79 303.48 228.17 310.32 244.19 312C245.99 312.12 247.79 312.24 249.58 312.24C249.58 312.24 268.24 311.88 268.78 312C279.58 312 278.38 320.4 278.38 321.6V331.2C278.38 332.52 278.08 340.8 268.67 340.8C267.95 340.8 220.78 340.8 220.78 340.8V350.41H220.81Z" fill="#F57F17"/>
<path d="M403.2 330.8C403.2 342.39 409.75 348.89 427.12 350.19C428.74 350.3 430.37 350.4 432 350.4H480V340.8H435.65C425.74 340.8 422.4 336.64 422.4 330.69V264H403.2V330.8Z" fill="#F57F17"/>
<path d="M307.04 331.21V283.21C307.04 273.01 312.04 265.97 326.2 264.01H332.92H367.39H372.64C386.8 265.97 393.44 273 393.44 283.21V331.03C393.44 339.3 391.29 343.74 384.28 346.62L399.16 360H377.56L366.86 350.4H354.29L332.93 350.52C329.84 350.52 326.58 350.09 323 349.11C312.26 346.18 307.04 340.54 307.04 331.21ZM326.24 331.21C327.22 335.88 330.97 340.81 337.64 340.81H356.28L345.6 331.21H367.35L372.54 336.03C372.54 336.03 374.4 334.51 374.4 331.21C374.4 327.91 374.24 283.21 374.24 283.21C373.26 278.87 368.86 273.61 362.36 273.61H337.65C330.16 273.61 326.25 279.09 326.25 284.19L326.24 331.21Z" fill="#F57F17"/>
<path d="M461.99 253.89C451.68 253.61 443.81 254.57 437.08 257.4C435.17 258.21 432.12 258.23 431.8 260.63C432.85 261.73 433.01 263.38 433.85 264.73C435.45 267.33 438.17 270.82 440.59 272.64C443.24 274.64 445.97 276.78 448.8 278.51C453.84 281.58 459.47 283.34 464.33 286.42C467.19 288.23 470.03 290.53 472.83 292.57C474.21 293.59 475.13 295.16 476.93 295.8C476.93 295.7 476.93 295.61 476.93 295.51C475.99 294.31 475.74 292.66 474.88 291.4C473.61 290.13 472.34 288.86 471.07 287.59C467.35 282.65 462.61 278.3 457.59 274.7C453.58 271.82 444.61 267.93 442.93 263.27C442.83 263.17 442.74 263.08 442.63 262.97C445.47 262.65 448.8 261.62 451.42 260.92C455.83 259.74 459.76 260.05 464.31 258.87C466.36 258.28 468.41 257.7 470.46 257.11C470.46 256.72 470.46 256.33 470.46 255.94C468.16 253.58 466.51 250.46 464.01 248.32C457.44 242.73 450.28 237.15 442.91 232.49C438.82 229.91 433.76 228.23 429.43 226.04C427.97 225.3 425.41 224.92 424.45 223.7C422.17 220.8 420.94 217.11 419.18 213.74C415.5 206.66 411.88 198.92 408.63 191.47C406.4 186.39 404.95 181.37 402.18 176.81C388.87 154.93 374.54 141.72 352.36 128.74C347.64 125.98 341.95 124.89 335.94 123.46C332.71 123.27 329.49 123.07 326.26 122.87C324.29 122.04 322.25 119.64 320.39 118.47C313.04 113.82 294.18 103.72 288.74 117C285.3 125.38 293.88 133.56 296.95 137.81C299.1 140.79 301.86 144.13 303.4 147.49C304.41 149.69 304.59 151.9 305.45 154.23C307.58 159.97 310.95 166.51 313.71 171.82C315.1 174.51 316.64 177.33 318.4 179.73C319.48 181.2 321.33 181.85 321.63 184.13C319.82 186.66 319.72 190.59 318.7 193.81C314.12 208.26 315.85 226.21 322.51 236.89C324.55 240.17 329.37 247.21 335.99 244.51C341.78 242.15 340.49 234.84 342.14 228.39C342.51 226.93 342.28 225.86 343.02 224.88C343.02 224.98 343.02 225.07 343.02 225.18C344.78 228.69 346.53 232.22 348.3 235.73C352.21 242.02 359.14 248.59 365 253.03C368.04 255.33 370.44 259.31 374.38 260.65C374.38 260.55 374.38 260.46 374.38 260.35C374.28 260.35 374.19 260.35 374.08 260.35C373.32 259.16 372.12 258.67 371.15 257.71C368.86 255.46 366.3 252.67 364.41 250.09C359.07 242.84 354.35 234.9 350.05 226.64C348 222.69 346.21 218.35 344.48 214.33C343.81 212.78 343.82 210.44 342.43 209.64C340.53 212.58 337.75 214.96 336.28 218.43C333.94 223.98 333.63 230.76 332.77 237.77C332.25 237.95 332.48 237.83 332.18 238.06C328.1 237.07 326.66 232.88 325.14 229.27C321.3 220.15 320.59 205.47 323.97 194.98C324.84 192.26 328.79 183.71 327.2 181.2C326.44 178.69 323.92 177.24 322.52 175.33C320.77 172.97 319.04 169.85 317.83 167.12C314.69 160.01 311.71 151.74 308.4 144.55C306.82 141.11 304.15 137.64 301.95 134.59C299.52 131.21 296.79 128.72 294.91 124.63C294.24 123.18 293.33 120.85 294.32 119.35C294.64 118.34 295.08 117.92 296.08 117.59C297.78 116.27 302.51 118.02 304.29 118.76C308.99 120.71 312.91 122.57 316.89 125.21C318.8 126.48 320.73 128.93 323.04 129.61C323.92 129.61 324.8 129.61 325.68 129.61C329.81 130.56 334.43 129.91 338.28 131.08C345.1 133.15 351.2 136.37 356.74 139.87C373.64 150.54 387.45 165.72 396.9 183.84C398.42 186.76 399.08 189.54 400.41 192.63C403.11 198.87 406.52 205.29 409.2 211.39C411.88 217.48 414.5 223.62 418.29 228.69C420.29 231.35 427.99 232.78 431.48 234.26C433.93 235.3 437.95 236.37 440.27 237.77C444.71 240.45 449.01 243.64 453.16 246.56C455.28 248.03 461.67 251.24 461.99 253.89Z" fill="#00796B"/>
<path d="M330.98 142.23C328.83 142.19 327.31 142.46 325.7 142.82C325.7 142.92 325.7 143.01 325.7 143.12C325.8 143.12 325.89 143.12 326 143.12C327.03 145.22 328.83 146.59 330.1 148.4C331.08 150.45 332.05 152.5 333.03 154.55C333.13 154.45 333.22 154.36 333.32 154.26C335.13 152.98 335.97 150.94 335.96 147.81C335.23 147.04 335.12 146.08 334.49 145.17C333.65 143.94 332.03 143.25 330.98 142.23Z" fill="#00796B"/>
</g>
<defs>
<clipPath id="clip0_509_25">
<rect width="480" height="480" fill="white"/>
</clipPath>
</defs>
</svg>
