<svg width="281" height="274" viewBox="0 0 281 274" fill="none" xmlns="http://www.w3.org/2000/svg">
<path d="M143.427 187.69C143.427 187.69 143.369 187.462 143.31 187.005C143.427 187.462 143.427 187.69 143.427 187.69Z" fill="#F50057"/>
<path d="M160.258 49.2344C160.258 49.2344 158.062 41.3855 160.99 34.9636C163.917 28.5417 163.917 24.2605 158.062 17.8386C169.771 17.125 174.161 24.974 174.161 24.974L174.308 25.8816C174.999 30.2542 172.68 34.4099 168.77 36.659C165.199 38.7083 161.358 42.4529 160.258 49.2344Z" fill="#F50057"/>
<path d="M243.709 206.87C243.826 205.671 245.699 189.517 241.484 181.982C232.703 206.185 223.922 228.333 198.339 244.031C201.969 236.896 207.823 225.479 213.677 208.354C196.115 231.187 160.99 254.021 134.646 255.448C152.442 245.858 162.453 233.528 166.844 225.479C166.844 225.479 156.599 228.333 144.13 229.76C160.99 219.771 172.698 201.961 166.844 174.104C155.135 209.781 139.036 221.198 117.786 223.31C96.5937 225.479 77.5677 214.747 77.5677 214.747L84.8854 214.062C84.8854 214.062 65.8594 199.792 72.4746 181.24C72.7673 180.326 73.1185 179.47 73.5283 178.671C78.3287 168.282 94.6619 173.533 92.9641 184.779V184.836C92.9641 184.836 98.0573 198.365 111.932 194.768C116.381 187.69 119.308 180.497 119.308 180.497L121.474 189.802C121.474 189.802 131.719 185.521 131.719 177.643C140.5 180.897 142.725 184.95 143.251 186.72C141.729 178.728 128.499 123.757 58.4246 124.556L46.1894 135.63C45.3698 136.372 44.0819 135.744 44.1989 134.717L45.1356 125.583L45.9552 124.784C45.721 124.841 45.4283 124.784 45.1942 124.784L45.1356 125.583L40.3352 129.922C39.5156 130.664 38.2277 130.036 38.3448 129.008L38.9302 123.186C28.7439 118.962 27.8073 107.773 27.8073 107.773C27.8073 107.773 15.1037 104.291 20.4896 88.4791C23.4167 79.9166 30.4417 79.0604 33.4273 79.7454C37.2325 80.6016 41.1548 80.6587 44.7844 79.2316C50.0531 77.1766 56.7854 73.2379 61.4687 65.6458C70.25 51.3749 83.4219 45.6666 111.932 45.6666C149.691 45.6666 164.912 56.9691 166.668 58.3391C165.614 57.1404 159.233 48.8633 172.698 36.4191C185.987 24.0891 183.587 21.1779 183.06 20.7212C185.05 21.292 210.867 29.8545 213.677 62.7916C216.604 97.0416 175.625 104.177 175.625 104.177C175.625 104.177 228.312 114.167 229.015 65.6458C239.318 71.3541 260.51 92.7604 263.437 139.169C266.306 184.151 244.938 205.671 243.709 206.87Z" fill="#F50057"/>
<path d="M45.9552 124.784L45.1356 125.583L45.1942 124.784C45.4283 124.784 45.721 124.841 45.9552 124.784Z" fill="#F50057"/>
<path d="M45.9552 124.784L45.1356 125.583L45.1942 124.784C45.4283 124.784 45.721 124.841 45.9552 124.784Z" fill="#F50057"/>
</svg>
