<svg width="443" height="461" viewBox="0 0 443 461" fill="none" xmlns="http://www.w3.org/2000/svg">
<g clip-path="url(#clip0_509_45)">
<path d="M207.009 0.360148C206.057 0.450178 203.029 0.765284 200.304 0.99036C137.451 6.88734 78.5772 42.1792 41.2893 96.4224C20.5257 126.583 7.24563 160.794 2.22776 197.031C0.454203 209.681 0.237915 213.417 0.237915 230.568C0.237915 247.718 0.454203 251.455 2.22776 264.104C14.2533 350.578 73.3863 423.232 153.586 450.151C167.947 454.968 183.087 458.254 200.304 460.235C207.009 461 235.991 461 242.696 460.235C272.414 456.814 297.59 449.161 322.42 435.972C326.226 433.946 326.962 433.406 326.443 432.956C326.097 432.686 309.875 410.043 290.409 382.674L255.025 332.932L210.686 264.644C186.288 227.101 166.217 196.401 166.044 196.401C165.871 196.356 165.698 226.696 165.611 263.744C165.482 328.611 165.438 331.221 164.66 332.752C163.535 334.958 162.67 335.858 160.853 336.848C159.469 337.569 158.258 337.704 151.726 337.704H144.242L142.252 336.398C140.955 335.543 140.003 334.417 139.354 333.112L138.446 331.086L138.532 240.831L138.662 150.531L140.003 148.775C140.695 147.83 142.166 146.614 143.204 146.029C144.977 145.129 145.67 145.039 153.153 145.039C161.978 145.039 163.448 145.399 165.741 148.01C166.39 148.73 190.398 186.363 219.121 231.693C247.844 277.023 287.122 338.919 306.414 369.304L341.453 424.538L343.227 423.322C358.929 412.699 375.54 397.574 388.69 381.818C416.678 348.372 434.716 307.588 440.772 264.104C442.546 251.455 442.762 247.718 442.762 230.568C442.762 213.417 442.546 209.681 440.772 197.031C428.747 110.557 369.614 37.9028 289.414 10.9837C275.269 6.21212 260.215 2.92601 243.345 0.945345C239.192 0.495193 210.599 2.6688e-05 207.009 0.360148ZM297.59 139.637C299.666 140.717 301.353 142.788 301.959 144.949C302.305 146.119 302.392 171.148 302.305 227.552L302.175 308.489L288.463 286.611L274.707 264.734V205.899C274.707 167.861 274.88 146.479 275.139 145.444C275.831 142.923 277.345 140.942 279.422 139.772C281.195 138.827 281.844 138.737 288.636 138.737C295.038 138.737 296.162 138.827 297.59 139.637Z" fill="black"/>
<path d="M339.29 425.528C337.776 426.518 337.3 427.194 338.641 426.428C339.593 425.843 341.15 424.628 340.891 424.583C340.761 424.583 340.026 425.033 339.29 425.528ZM336.305 427.554C335.527 428.184 335.527 428.229 336.478 427.734C336.998 427.464 337.43 427.149 337.43 427.059C337.43 426.698 337.214 426.788 336.305 427.554ZM334.143 428.904C333.364 429.534 333.364 429.579 334.316 429.084C334.835 428.814 335.267 428.499 335.267 428.409C335.267 428.049 335.051 428.139 334.143 428.904ZM331.98 430.255C331.201 430.885 331.201 430.93 332.153 430.435C332.672 430.165 333.104 429.85 333.104 429.76C333.104 429.399 332.888 429.489 331.98 430.255ZM328.692 432.055C327.048 432.956 327.135 433.316 328.779 432.46C329.514 432.055 330.076 431.65 330.076 431.56C330.076 431.245 330.033 431.29 328.692 432.055Z" fill="black"/>
</g>
<defs>
<clipPath id="clip0_509_45">
<rect width="443" height="461" fill="white"/>
</clipPath>
</defs>
</svg>
