<svg width="339" height="308" viewBox="0 0 339 308" fill="none" xmlns="http://www.w3.org/2000/svg">
<path d="M169.549 291.439C165.496 291.439 161.477 290.476 157.925 288.615L120.917 268.704C115.387 265.894 118.085 264.899 119.907 264.328C127.28 261.986 128.771 261.454 136.638 257.392C137.465 256.962 138.545 257.116 139.393 257.571L167.826 272.901C168.85 273.408 170.312 273.408 171.259 272.901L282.119 214.759C283.143 214.227 283.814 213.149 283.814 212.039V95.8137C283.814 94.6523 283.15 93.6192 282.097 93.0417L171.287 34.9452C170.263 34.3934 168.9 34.3934 167.876 34.9452L57.0791 93.0353C56.0056 93.5871 55.3206 94.6715 55.3206 95.7816V212.013C55.3206 213.123 55.9844 214.182 57.0438 214.708L87.4055 230.641C103.889 238.129 113.96 229.306 113.96 220.432V105.721C113.96 104.085 115.373 102.821 117.181 102.821H131.221C132.973 102.821 134.413 104.078 134.413 105.721V220.49C134.413 240.458 122.428 251.931 101.587 251.931C95.1742 251.931 90.1246 251.931 76.0278 245.63L46.9444 230.403C39.7548 226.617 35.3125 219.553 35.3125 212.02V95.788C35.3125 88.2228 39.7548 81.1644 46.9374 77.4299L157.918 19.2629C164.938 15.6567 174.26 15.6567 181.231 19.2629L292.07 77.4556C299.217 81.2094 303.688 88.2484 303.688 95.8137V212.045C303.688 219.585 299.217 226.617 292.063 230.403L181.224 288.564C177.671 290.431 173.646 291.387 169.542 291.387" fill="#21A366"/>
<path d="M203.795 211.346C155.29 211.346 145.12 191.114 145.12 174.148C145.12 172.538 146.554 171.248 148.334 171.248H162.656C164.238 171.248 165.573 172.294 165.82 173.712C167.982 186.969 174.423 193.655 203.753 193.655C227.116 193.655 237.053 188.862 237.053 177.601C237.053 171.12 234.221 166.307 197.927 163.08C167.565 160.359 148.807 154.282 148.807 132.222C148.807 111.9 167.678 99.7985 199.283 99.7985C234.779 99.7985 252.371 110.996 254.589 135.045C254.674 135.879 254.342 136.681 253.727 137.291C253.12 137.869 252.258 138.221 251.368 138.221H236.968C235.471 138.221 234.164 137.265 233.861 135.95C230.393 122.007 222.01 117.547 199.226 117.547C173.723 117.547 170.757 125.613 170.757 131.664C170.757 138.998 174.253 141.141 208.662 145.28C242.738 149.386 258.918 155.187 258.918 176.946C258.918 198.878 238.769 211.461 203.64 211.461" fill="#21A366"/>
</svg>
