<svg width="23" height="22" viewBox="0 0 23 22" fill="none" xmlns="http://www.w3.org/2000/svg">
<path d="M10.1959 1.03318L2.38243 8.50859C2.04015 8.83567 1.76861 9.22407 1.58335 9.65159C1.39809 10.0791 1.30273 10.5374 1.30273 11.0001C1.30273 11.4629 1.39809 11.9212 1.58335 12.3487C1.76861 12.7762 2.04015 13.1646 2.38243 13.4917L10.1978 20.9673C10.5398 21.2947 10.9458 21.5544 11.3928 21.7316C11.8397 21.9088 12.3188 22 12.8026 22C13.2865 22 13.7655 21.9088 14.2125 21.7316C14.6594 21.5544 15.0655 21.2947 15.4074 20.9673L18.0131 18.4758L15.4074 15.9842L12.8027 18.4757L4.98632 11.0002L12.8017 3.52459L18.0122 8.50859L12.8017 13.4917L15.4065 15.9841L20.617 11.0002C20.9595 10.6731 21.2311 10.2846 21.4165 9.85702C21.6018 9.42941 21.6973 8.97104 21.6973 8.50814C21.6973 8.04523 21.6018 7.58686 21.4165 7.15925C21.2311 6.73164 20.9595 6.34318 20.617 6.01609L15.396 1.03309C15.0552 0.705651 14.6501 0.445833 14.204 0.268548C13.7579 0.0912621 13.2795 0 12.7965 0C12.3134 0 11.8351 0.0912621 11.3889 0.268548C10.9428 0.445833 10.5377 0.705651 10.1969 1.03309L10.1959 1.03318Z" fill="white"/>
</svg>
