<svg width="500" height="500" viewBox="0 0 500 500" fill="none" xmlns="http://www.w3.org/2000/svg">
<path d="M250 354.167C115.625 354.167 10.4166 308.333 10.4166 250C10.4166 191.667 115.625 145.833 250 145.833C384.375 145.833 489.583 191.667 489.583 250C489.583 308.333 384.375 354.167 250 354.167ZM250 166.667C118.75 166.667 31.25 209.375 31.25 250C31.25 290.625 118.75 333.333 250 333.333C381.25 333.333 468.75 290.625 468.75 250C468.75 209.375 381.25 166.667 250 166.667Z" fill="#80DEEA"/>
<path d="M157.292 464.583C146.875 464.583 138.542 462.5 130.208 457.292C79.1667 428.125 92.7084 314.583 159.375 197.917C190.625 143.75 229.167 97.9167 266.667 68.75C307.292 37.5 343.75 28.125 368.75 42.7084C394.792 57.2917 404.167 93.75 397.917 144.792C391.667 192.708 370.833 248.958 339.583 303.125C308.333 357.292 269.792 403.125 232.292 432.292C205.208 453.125 179.167 464.583 157.292 464.583ZM342.708 56.2501C326.042 56.2501 304.167 65.6251 280.208 84.3751C244.792 112.5 208.333 156.25 178.125 208.333C112.5 321.875 106.25 419.792 140.625 439.583C158.333 450 187.5 440.625 219.792 415.625C255.208 387.5 291.667 343.75 321.875 291.667C352.083 239.583 371.875 186.458 378.125 141.667C383.333 100 377.083 70.8334 359.375 60.4167C354.167 58.3334 348.958 56.2501 342.708 56.2501Z" fill="#80DEEA"/>
<path d="M343.75 464.583C291.667 464.583 216.667 401.042 160.417 302.083C92.7083 185.417 79.1667 71.875 130.208 42.7083C181.25 13.5417 272.917 81.25 340.625 197.917C371.875 252.083 392.708 308.333 398.958 356.25C406.25 407.292 395.833 442.708 369.792 458.333C361.458 462.5 353.125 464.583 343.75 464.583ZM140.625 60.4167C106.25 80.2083 112.5 178.125 178.125 291.667C243.75 405.208 325 459.375 359.375 439.583C377.083 429.167 383.333 400 378.125 358.333C371.875 313.542 352.083 260.417 321.875 208.333C256.25 94.7917 175 40.625 140.625 60.4167Z" fill="#80DEEA"/>
<path d="M250 291.667C273.012 291.667 291.667 273.012 291.667 250C291.667 226.988 273.012 208.333 250 208.333C226.988 208.333 208.333 226.988 208.333 250C208.333 273.012 226.988 291.667 250 291.667Z" fill="#80DEEA"/>
</svg>
