<svg width="48" height="35" viewBox="0 0 48 35" fill="none" xmlns="http://www.w3.org/2000/svg">
<path d="M14.375 4.5C14.375 6.98304 12.4141 9 10 9C7.58594 9 5.625 6.98304 5.625 4.5C5.625 2.01696 7.58594 0 10 0C12.4141 0 14.375 2.01696 14.375 4.5ZM5 17.1723C4.21875 18.0723 3.75 19.2696 3.75 20.5714C3.75 21.8732 4.21875 23.0705 5 23.9705V17.1723ZM16.2812 13.2107C13.9609 15.3241 12.5 18.4179 12.5 21.8571C12.5 24.6134 13.4375 27.1446 15 29.1295V30.8571C15 32.2795 13.8828 33.4286 12.5 33.4286H7.5C6.11719 33.4286 5 32.2795 5 30.8571V28.7036C2.04688 27.2571 0 24.1634 0 20.5714C0 15.5973 3.91406 11.5714 8.75 11.5714H11.25C13.125 11.5714 14.8594 12.1741 16.2812 13.2027V13.2107ZM35 30.8571V29.1295C36.5625 27.1446 37.5 24.6134 37.5 21.8571C37.5 18.4179 36.0391 15.3241 33.7188 13.2027C35.1406 12.1741 36.875 11.5714 38.75 11.5714H41.25C46.0859 11.5714 50 15.5973 50 20.5714C50 24.1634 47.9531 27.2571 45 28.7036V30.8571C45 32.2795 43.8828 33.4286 42.5 33.4286H37.5C36.1172 33.4286 35 32.2795 35 30.8571ZM44.375 4.5C44.375 6.98304 42.4141 9 40 9C37.5859 9 35.625 6.98304 35.625 4.5C35.625 2.01696 37.5859 0 40 0C42.4141 0 44.375 2.01696 44.375 4.5ZM45 17.1723V23.9786C45.7812 23.0705 46.25 21.8813 46.25 20.5795C46.25 19.2777 45.7812 18.0804 45 17.1804V17.1723ZM25 10.2857C22.2422 10.2857 20 7.97946 20 5.14286C20 2.30625 22.2422 0 25 0C27.7578 0 30 2.30625 30 5.14286C30 7.97946 27.7578 10.2857 25 10.2857ZM18.75 21.8571C18.75 23.1589 19.2188 24.3482 20 25.2563V18.458C19.2188 19.3661 18.75 20.5554 18.75 21.8571ZM30 18.458V25.2643C30.7812 24.3563 31.25 23.167 31.25 21.8652C31.25 20.5634 30.7812 19.3661 30 18.4661V18.458ZM35 21.8571C35 25.4491 32.9531 28.5429 30 29.9893V33.4286C30 34.8509 28.8828 36 27.5 36H22.5C21.1172 36 20 34.8509 20 33.4286V29.9893C17.0469 28.5429 15 25.4491 15 21.8571C15 16.883 18.9141 12.8571 23.75 12.8571H26.25C31.0859 12.8571 35 16.883 35 21.8571Z" fill="white"/>
</svg>
