<svg width="500" height="500" viewBox="0 0 500 500" fill="none" xmlns="http://www.w3.org/2000/svg">
<path d="M500 0H0V500H500V0Z" fill="#1976D2"/>
<path d="M298.472 222.222H114.264V267.555H180.334V472.222H232.681V267.555H298.472V222.222Z" fill="white"/>
<path d="M461.028 278.944C461.028 278.944 436.208 262.389 408.153 262.389C380.097 262.389 370 275.722 370 289.972C370 326.75 472.514 323.069 472.514 397.083C472.514 511.097 316.208 460.528 316.208 460.528V405.833C316.208 405.833 346.097 428.361 381.944 428.361C417.792 428.361 416.431 404.917 416.431 401.694C416.431 367.68 314.833 367.68 314.833 292.278C314.833 189.764 462.861 230.208 462.861 230.208L461.028 278.944Z" fill="white"/>
</svg>
